<svg width="220" height="140" viewBox="0 0 220 140" fill="none" xmlns="http://www.w3.org/2000/svg">
<rect x="3" width="214" height="95" rx="20" fill="white"/>
<path d="M218.061 122.061C218.646 121.475 218.646 120.525 218.061 119.939L208.515 110.393C207.929 109.808 206.979 109.808 206.393 110.393C205.808 110.979 205.808 111.929 206.393 112.515L214.879 121L206.393 129.485C205.808 130.071 205.808 131.021 206.393 131.607C206.979 132.192 207.929 132.192 208.515 131.607L218.061 122.061ZM196 122.5H217V119.5H196V122.5Z" fill="white"/>
<path d="M218.061 122.061C218.646 121.475 218.646 120.525 218.061 119.939L208.515 110.393C207.929 109.808 206.979 109.808 206.393 110.393C205.808 110.979 205.808 111.929 206.393 112.515L214.879 121L206.393 129.485C205.808 130.071 205.808 131.021 206.393 131.607C206.979 132.192 207.929 132.192 208.515 131.607L218.061 122.061ZM196 122.5H217V119.5H196V122.5Z" fill="white"/>
<path d="M218.061 122.061C218.646 121.475 218.646 120.525 218.061 119.939L208.515 110.393C207.929 109.808 206.979 109.808 206.393 110.393C205.808 110.979 205.808 111.929 206.393 112.515L214.879 121L206.393 129.485C205.808 130.071 205.808 131.021 206.393 131.607C206.979 132.192 207.929 132.192 208.515 131.607L218.061 122.061ZM196 122.5H217V119.5H196V122.5Z" fill="white"/>
<path d="M218.768 122.768C219.744 121.791 219.744 120.209 218.768 119.232L202.858 103.322C201.882 102.346 200.299 102.346 199.322 103.322C198.346 104.299 198.346 105.882 199.322 106.858L213.464 121L199.322 135.142C198.346 136.118 198.346 137.701 199.322 138.678C200.299 139.654 201.882 139.654 202.858 138.678L218.768 122.768ZM181.5 123.5H217V118.5H181.5V123.5Z" fill="white"/>
<path d="M1.23223 119.232C0.255922 120.209 0.255922 121.791 1.23223 122.768L17.1421 138.678C18.1184 139.654 19.7014 139.654 20.6777 138.678C21.654 137.701 21.654 136.118 20.6777 135.142L6.53553 121L20.6777 106.858C21.654 105.882 21.654 104.299 20.6777 103.322C19.7014 102.346 18.1184 102.346 17.1421 103.322L1.23223 119.232ZM40.5 118.5L3 118.5L3 123.5L40.5 123.5L40.5 118.5Z" fill="white"/>
<circle cx="70.5" cy="120.5" r="3.5" fill="white"/>
<circle cx="70.5" cy="120.5" r="3.5" fill="white"/>
<circle cx="70" cy="121" r="10" fill="white"/>
<circle cx="97" cy="121" r="10" fill="white"/>
<circle cx="124" cy="121" r="10" fill="white"/>
<circle cx="151" cy="121" r="10" fill="white"/>
</svg>
