<svg width="606" height="573" viewBox="0 0 606 573" fill="none" xmlns="http://www.w3.org/2000/svg">
<path fill-rule="evenodd" clip-rule="evenodd" d="M303.5 341C397.665 341 474 264.665 474 170.5C474 76.3354 397.665 0 303.5 0C209.335 0 133 76.3354 133 170.5C133 264.665 209.335 341 303.5 341ZM303.5 300.08C375.065 300.08 433.08 242.065 433.08 170.5C433.08 98.9349 375.065 40.92 303.5 40.92C231.935 40.92 173.92 98.9349 173.92 170.5C173.92 242.065 231.935 300.08 303.5 300.08Z" fill="black"/>
<rect x="385" y="352" width="210" height="210" rx="49" stroke="black" stroke-width="22"/>
<path fill-rule="evenodd" clip-rule="evenodd" d="M380.92 400C376.502 408.359 374 417.887 374 428V436.101C373.402 436.091 372.804 436.085 372.205 436.085H228.148C201.584 436.085 176.112 446.655 157.351 465.461L62.9143 560.129H5.07106C0.616535 560.129 -1.6143 554.743 1.53552 551.593L123.839 429.289C142.593 410.536 168.028 400 194.55 400H380.92ZM605.871 560H537.31L537.439 560.129H606L605.871 560Z" fill="black"/>
<path d="M492 377L509.961 432.279H568.085L521.062 466.443L539.023 521.721L492 487.557L444.977 521.721L462.938 466.443L415.915 432.279H474.039L492 377Z" fill="black"/>
</svg>
