<svg width="984" height="1013" viewBox="0 0 984 1013" fill="none" xmlns="http://www.w3.org/2000/svg">
<path d="M416.5 577L204.506 693.115C201.042 695.012 201.042 699.988 204.506 701.885L416.5 818" stroke="black" stroke-width="90"/>
<path d="M34.9998 973L35 40.3455C35 35.8529 40.4645 33.6397 43.5908 36.8661L947.284 969.521C950.357 972.693 948.11 978 943.693 978L39.9998 978C37.2384 978 34.9998 975.761 34.9998 973Z" stroke="black" stroke-width="70"/>
<path d="M416.5 577L204.506 693.115C201.042 695.012 201.042 699.988 204.506 701.885L416.5 818" stroke="black" stroke-width="90"/>
<path d="M34.9998 973L35 40.3455C35 35.8529 40.4645 33.6397 43.5908 36.8661L947.284 969.521C950.357 972.693 948.11 978 943.693 978L39.9998 978C37.2384 978 34.9998 975.761 34.9998 973Z" stroke="black" stroke-width="70"/>
</svg>
