<svg width="985" height="1013" viewBox="0 0 985 1013" fill="none" xmlns="http://www.w3.org/2000/svg">
<path d="M568 436L779.994 319.885C783.458 317.988 783.458 313.012 779.994 311.115L568 195" stroke="black" stroke-width="90"/>
<path d="M949.5 40L949.5 972.654C949.5 977.147 944.035 979.36 940.909 976.134L37.2161 43.4793C34.1427 40.3074 36.3904 34.9999 40.807 34.9999L944.5 35C947.262 35 949.5 37.2386 949.5 40Z" stroke="black" stroke-width="70"/>
<path d="M568 436L779.994 319.885C783.458 317.988 783.458 313.012 779.994 311.115L568 195" stroke="black" stroke-width="90"/>
<path d="M949.5 40L949.5 972.654C949.5 977.147 944.035 979.36 940.909 976.134L37.2161 43.4793C34.1427 40.3074 36.3904 34.9999 40.807 34.9999L944.5 35C947.262 35 949.5 37.2386 949.5 40Z" stroke="black" stroke-width="70"/>
</svg>
