<svg width="75" height="44" viewBox="-5 -3 85 50" fill="none" xmlns="http://www.w3.org/2000/svg">
<mask id="path-1-inside-1_16_74" fill="white">
<path fill-rule="evenodd" clip-rule="evenodd" d="M50.9242 13.7425C52.2877 14.4358 53.4297 15.1943 54.3588 16H55.8144C51.7765 11.8578 43.2834 9 31 9C13.3269 9 0 16.3543 0 23.5C0 30.6457 8.82689 35 26.5 35C27.1717 35 27.8386 34.9916 28.5 34.9751V33.9748C27.8389 33.9915 27.172 34 26.5 34C17.7195 34 11.2593 32.9144 7.03203 31.0173C2.83853 29.1353 1 26.5481 1 23.5C1 22.036 1.68296 20.4645 3.10162 18.8889C4.51897 17.3147 6.62225 15.7948 9.31479 14.4673C14.6972 11.8136 22.2916 10 31 10C39.7417 10 46.4456 11.4656 50.9242 13.7425Z"/>
</mask>
<path fill-rule="evenodd" clip-rule="evenodd" d="M50.9242 13.7425C52.2877 14.4358 53.4297 15.1943 54.3588 16H55.8144C51.7765 11.8578 43.2834 9 31 9C13.3269 9 0 16.3543 0 23.5C0 30.6457 8.82689 35 26.5 35C27.1717 35 27.8386 34.9916 28.5 34.9751V33.9748C27.8389 33.9915 27.172 34 26.5 34C17.7195 34 11.2593 32.9144 7.03203 31.0173C2.83853 29.1353 1 26.5481 1 23.5C1 22.036 1.68296 20.4645 3.10162 18.8889C4.51897 17.3147 6.62225 15.7948 9.31479 14.4673C14.6972 11.8136 22.2916 10 31 10C39.7417 10 46.4456 11.4656 50.9242 13.7425Z" fill="black"/>
<path d="M54.3588 16L54.0313 16.3778L54.1723 16.5H54.3588V16ZM50.9242 13.7425L51.1508 13.2968L51.1508 13.2968L50.9242 13.7425ZM55.8144 16V16.5H57L56.1724 15.651L55.8144 16ZM28.5 34.9751L28.5125 35.475L29 35.4628V34.9751H28.5ZM28.5 33.9748H29V33.462L28.4874 33.475L28.5 33.9748ZM7.03203 31.0173L6.82731 31.4735L6.82731 31.4735L7.03203 31.0173ZM3.10162 18.8889L2.73005 18.5543L2.73005 18.5543L3.10162 18.8889ZM9.31479 14.4673L9.53589 14.9157L9.53589 14.9157L9.31479 14.4673ZM54.6864 15.6222C54.6328 15.5758 54.5786 15.5295 54.5238 15.4835L53.8806 16.2492C53.9315 16.2919 53.9817 16.3348 54.0313 16.3778L54.6864 15.6222ZM53.8546 14.9544C53.5245 14.7084 53.1744 14.4681 52.8042 14.2338L52.2695 15.0788C52.6192 15.3002 52.9483 15.5262 53.2571 15.7563L53.8546 14.9544ZM51.3383 13.3933C51.2763 13.361 51.2138 13.3288 51.1508 13.2968L50.6976 14.1882C50.7578 14.2188 50.8175 14.2495 50.8767 14.2804L51.3383 13.3933ZM51.1508 13.2968C50.8468 13.1423 50.5331 12.9915 50.2099 12.8448L49.7966 13.7554C50.1068 13.8962 50.4072 14.0406 50.6976 14.1882L51.1508 13.2968ZM46.309 11.4118C44.4893 10.8761 42.466 10.439 40.2454 10.1187L40.1027 11.1084C42.2814 11.4227 44.2576 11.8503 46.0266 12.3711L46.309 11.4118ZM32.0301 9.50683C31.6899 9.50229 31.3465 9.5 31 9.5V10.5C31.3421 10.5 31.6811 10.5023 32.0168 10.5067L32.0301 9.50683ZM31 9.5C30.6226 9.5 30.2473 9.50338 29.8741 9.51006L29.892 10.5099C30.2592 10.5033 30.6286 10.5 31 10.5V9.5ZM25.3806 9.75503C23.0368 9.97055 20.8025 10.3169 18.7031 10.7717L18.9148 11.749C20.9736 11.303 23.1678 10.9627 25.4721 10.7508L25.3806 9.75503ZM10.1186 13.5355C9.76897 13.6932 9.42725 13.8544 9.09368 14.0188L9.53589 14.9157C9.85894 14.7565 10.1903 14.6002 10.5297 14.4471L10.1186 13.5355ZM9.09368 14.0188C8.97636 14.0767 8.8601 14.1349 8.74493 14.1935L9.19829 15.0848C9.30972 15.0281 9.42226 14.9718 9.53589 14.9157L9.09368 14.0188ZM7.37312 14.9376C6.66437 15.3478 6.00494 15.7725 5.39745 16.2087L5.98075 17.021C6.55968 16.6053 7.19141 16.1981 7.87404 15.8031L7.37312 14.9376ZM3.0011 18.2623C2.90835 18.3593 2.81798 18.4567 2.73005 18.5543L3.4732 19.2235C3.55429 19.1334 3.63782 19.0434 3.72381 18.9535L3.0011 18.2623ZM2.73005 18.5543C2.66927 18.6218 2.60973 18.6894 2.55143 18.757L3.30877 19.41C3.36233 19.3479 3.41714 19.2857 3.4732 19.2235L2.73005 18.5543ZM1.88263 19.6109C1.54807 20.0855 1.2734 20.5622 1.05945 21.0387L1.97171 21.4483C2.1568 21.0361 2.39843 20.6148 2.69995 20.1871L1.88263 19.6109ZM0.507813 23.2139C0.502604 23.3095 0.5 23.4049 0.5 23.5H1.5C1.5 23.4232 1.5021 23.3459 1.50633 23.2682L0.507813 23.2139ZM0.5 23.5C0.5 23.6835 0.50625 23.8658 0.518897 24.0468L1.51646 23.9771C1.50548 23.8198 1.5 23.6608 1.5 23.5H0.5ZM1.00084 26.1868C1.38578 27.1569 1.99428 28.0571 2.83394 28.8792L3.53356 28.1647C2.78384 27.4306 2.25874 26.6455 1.93033 25.818L1.00084 26.1868ZM6.34985 31.2515C6.50574 31.3266 6.66488 31.4006 6.82731 31.4735L7.23675 30.5611C7.08236 30.4919 6.93141 30.4217 6.78387 30.3506L6.34985 31.2515ZM6.82731 31.4735C7.12842 31.6086 7.44008 31.7395 7.76227 31.8661L8.12798 30.9354C7.81985 30.8143 7.5228 30.6895 7.23675 30.5611L6.82731 31.4735ZM11.6148 33.0551C13.3776 33.4776 15.3519 33.8126 17.5389 34.0532L17.6482 33.0592C15.4957 32.8224 13.5635 32.4938 11.8479 32.0826L11.6148 33.0551ZM25.5028 34.4953C25.8318 34.4984 26.1643 34.5 26.5 34.5V33.5C26.1674 33.5 25.8382 33.4984 25.5123 33.4953L25.5028 34.4953ZM26.5 34.5C26.5336 34.5 26.5671 34.5 26.6006 34.4999L26.5994 33.4999C26.5663 33.5 26.5331 33.5 26.5 33.5V34.5ZM27.0032 34.4984C27.2049 34.4972 27.4062 34.4951 27.607 34.4924L27.5932 33.4925C27.3949 33.4952 27.1961 33.4972 26.9969 33.4984L27.0032 34.4984ZM28.412 34.4771C28.4456 34.4763 28.4791 34.4755 28.5126 34.4747L28.4874 33.475C28.4543 33.4758 28.4212 33.4766 28.388 33.4774L28.412 34.4771ZM28 33.9748V34.0248H29V33.9748H28ZM28 34.2249V34.525H29V34.2249H28ZM28 34.9251V34.9751H29V34.9251H28ZM28.4875 34.4753C28.4544 34.4761 28.4213 34.4769 28.3882 34.4777L28.4119 35.4774C28.4454 35.4766 28.4789 35.4758 28.5125 35.475L28.4875 34.4753ZM27.9907 34.4861C27.7925 34.4898 27.5937 34.4928 27.3945 34.495L27.4057 35.4949C27.6074 35.4927 27.8086 35.4897 28.0094 35.4859L27.9907 34.4861ZM26.5994 34.4999C26.5663 34.5 26.5331 34.5 26.5 34.5V35.5C26.5336 35.5 26.5671 35.5 26.6006 35.4999L26.5994 34.4999ZM26.5 34.5C26.2334 34.5 25.9689 34.499 25.7064 34.497L25.6988 35.497C25.9639 35.499 26.2309 35.5 26.5 35.5V34.5ZM22.5604 34.4223C20.9001 34.3543 19.3337 34.2422 17.8611 34.0878L17.7568 35.0824C19.2525 35.2392 20.8401 35.3527 22.5195 35.4214L22.5604 34.4223ZM11.6866 33.0722C11.1648 32.9482 10.6615 32.8166 10.1767 32.6777L9.90117 33.639C10.4015 33.7824 10.9196 33.9178 11.4555 34.0451L11.6866 33.0722ZM7.24743 31.6564C5.64473 30.9796 4.33849 30.196 3.31832 29.3208L2.66721 30.0798C3.78229 31.0364 5.18275 31.87 6.8584 32.5776L7.24743 31.6564ZM0.53487 24.2434C0.51166 23.9999 0.5 23.7521 0.5 23.5H-0.5C-0.5 23.783 -0.48691 24.0625 -0.460618 24.3383L0.53487 24.2434ZM0.5 23.5C0.5 23.2221 0.522079 22.9431 0.56588 22.6633L-0.422084 22.5086C-0.473684 22.8382 -0.5 23.1689 -0.5 23.5H0.5ZM1.93261 19.541C2.83207 18.2873 4.14074 17.0603 5.81443 15.9167L5.25028 15.091C3.50677 16.2823 2.10404 17.5866 1.12011 18.958L1.93261 19.541ZM12.2513 12.6546C12.8057 12.4452 13.376 12.2441 13.9617 12.0519L13.6498 11.1017C13.0506 11.2984 12.4664 11.5044 11.898 11.7191L12.2513 12.6546ZM17.4607 11.0572C19.1571 10.6446 20.9492 10.3037 22.8225 10.0472L22.6868 9.05648C20.7806 9.31749 18.9549 9.66459 17.2244 10.0855L17.4607 11.0572ZM30.0855 9.50663C30.389 9.50222 30.6938 9.5 31 9.5V8.5C30.689 8.5 30.3793 8.50226 30.071 8.50674L30.0855 9.50663ZM31 9.5C31.4423 9.5 31.8797 9.50373 32.312 9.51111L32.329 8.51126C31.891 8.50378 31.448 8.5 31 8.5V9.5ZM37.5397 9.79651C40.396 10.0682 42.9713 10.5193 45.2541 11.1184L45.508 10.1512C43.1665 9.53662 40.5374 9.07718 37.6344 8.801L37.5397 9.79651ZM54.5266 15.4876C54.8607 15.7685 55.1706 16.0559 55.4563 16.349L56.1724 15.651C55.8624 15.333 55.5281 15.0232 55.1701 14.7222L54.5266 15.4876ZM55.8144 15.5H55.7416V16.5H55.8144V15.5ZM55.4505 15.5H55.0138V16.5H55.4505V15.5ZM54.4316 15.5H54.3588V16.5H54.4316V15.5ZM54.3588 16L53.7037 16.7555L53.9857 17H54.3588V16ZM50.9242 13.7425L51.3774 12.8511L51.3774 12.8511L50.9242 13.7425ZM55.8144 16V17H58.1856L56.5304 15.302L55.8144 16ZM28.5 34.9751L28.5249 35.9748L29.5 35.9505V34.9751H28.5ZM28.5 33.9748H29.5V32.9493L28.4748 32.9751L28.5 33.9748ZM7.03203 31.0173L6.62258 31.9296L6.62258 31.9296L7.03203 31.0173ZM3.10162 18.8889L2.35847 18.2198L2.35847 18.2198L3.10162 18.8889ZM9.31479 14.4673L9.75699 15.3642L9.75699 15.3642L9.31479 14.4673ZM55.014 15.2445C54.9584 15.1963 54.9022 15.1484 54.8454 15.1006L53.559 16.632C53.6079 16.6731 53.6561 16.7143 53.7037 16.7555L55.014 15.2445ZM54.1533 14.5535C53.8125 14.2995 53.452 14.052 53.0716 13.8113L52.0021 15.5013C52.3416 15.7162 52.6602 15.9351 52.9584 16.1572L54.1533 14.5535ZM51.5691 12.9497C51.5057 12.9167 51.4418 12.8838 51.3774 12.8511L50.471 14.6339C50.5298 14.6638 50.5881 14.6938 50.6459 14.7239L51.5691 12.9497ZM51.3774 12.8511C51.0666 12.6931 50.7463 12.5392 50.4165 12.3895L49.5899 14.2107C49.8937 14.3486 50.1874 14.4897 50.471 14.6339L51.3774 12.8511ZM46.4502 10.9322C44.6051 10.389 42.5582 9.94713 40.3168 9.62379L40.0313 11.6033C42.1892 11.9146 44.1418 12.3374 45.8853 12.8508L46.4502 10.9322ZM32.0368 9.00687C31.6943 9.0023 31.3487 9 31 9V11C31.3399 11 31.6766 11.0022 32.0101 11.0067L32.0368 9.00687ZM31 9C30.6196 9 30.2413 9.00341 29.8651 9.01014L29.9009 11.0098C30.2652 11.0033 30.6316 11 31 11V9ZM25.3348 9.25713C22.9713 9.47446 20.7169 9.82379 18.5972 10.283L19.0206 12.2377C21.0591 11.7961 23.2332 11.4588 25.5179 11.2487L25.3348 9.25713ZM9.91301 13.0797C9.55831 13.2397 9.21141 13.4033 8.87258 13.5704L9.75699 15.3642C10.0748 15.2075 10.401 15.0536 10.7353 14.9028L9.91301 13.0797ZM8.87258 13.5704C8.7534 13.6291 8.63529 13.6883 8.51824 13.7478L9.42498 15.5304C9.53454 15.4747 9.64521 15.4193 9.75699 15.3642L8.87258 13.5704ZM7.12266 14.5048C6.40085 14.9226 5.72756 15.3561 5.10581 15.8026L6.2724 17.4271C6.83705 17.0217 7.45493 16.6233 8.1245 16.2358L7.12266 14.5048ZM2.63975 17.9168C2.54361 18.0173 2.44983 18.1183 2.35847 18.2198L3.84478 19.558C3.92244 19.4718 4.00256 19.3854 4.08516 19.2991L2.63975 17.9168ZM2.35847 18.2198C2.29534 18.2899 2.23343 18.3601 2.17276 18.4305L3.68744 19.7365C3.73863 19.6772 3.79107 19.6177 3.84478 19.558L2.35847 18.2198ZM1.47396 19.3228C1.1229 19.8209 0.831697 20.3253 0.603321 20.8339L2.42783 21.6531C2.5985 21.273 2.82361 20.8795 3.10862 20.4752L1.47396 19.3228ZM0.00855214 23.1867C0.00285468 23.2913 0 23.3958 0 23.5H2C2 23.4323 2.00185 23.3641 2.00559 23.2954L0.00855214 23.1867ZM0 23.5C0 23.6948 0.0066368 23.8887 0.0201131 24.0816L2.01525 23.9422C2.00509 23.7968 2 23.6494 2 23.5H0ZM0.536092 26.3712C0.949301 27.4125 1.5995 28.3703 2.48413 29.2365L3.88336 27.8075C3.17863 27.1174 2.69522 26.3899 2.39507 25.6335L0.536092 26.3712ZM6.13284 31.7019C6.2929 31.779 6.45614 31.8549 6.62258 31.9296L7.44147 30.105C7.2911 30.0375 7.14425 29.9692 7.00088 29.9001L6.13284 31.7019ZM6.62258 31.9296C6.93124 32.0682 7.2502 32.2021 7.57941 32.3315L8.31084 30.47C8.00974 30.3517 7.71999 30.23 7.44147 30.105L6.62258 31.9296ZM11.4983 33.5413C13.2847 33.9695 15.28 34.3077 17.4842 34.5502L17.7029 32.5622C15.5676 32.3272 13.6564 32.0019 11.9644 31.5964L11.4983 33.5413ZM25.498 34.9953C25.8287 34.9984 26.1627 35 26.5 35V33C26.169 33 25.8413 32.9984 25.5171 32.9953L25.498 34.9953ZM26.5 35C26.5338 35 26.5675 35 26.6013 34.9999L26.5988 32.9999C26.5659 33 26.5329 33 26.5 33V35ZM27.0063 34.9984C27.2093 34.9971 27.4119 34.9951 27.6139 34.9923L27.5863 32.9925C27.3893 32.9952 27.1918 32.9972 26.9938 32.9985L27.0063 34.9984ZM28.424 34.977C28.4578 34.9762 28.4915 34.9754 28.5252 34.9745L28.4748 32.9751C28.4419 32.976 28.409 32.9768 28.3761 32.9776L28.424 34.977ZM27.5 33.9748V34.0248H29.5V33.9748H27.5ZM27.5 34.2249V34.525H29.5V34.2249H27.5ZM27.5 34.9251V34.9751H29.5V34.9251H27.5ZM28.4751 33.9755C28.4422 33.9763 28.4093 33.9771 28.3764 33.9778L28.4237 35.9773C28.4574 35.9765 28.4912 35.9757 28.5249 35.9748L28.4751 33.9755ZM27.9814 33.9862C27.7844 33.9899 27.5869 33.9928 27.3889 33.995L27.4112 35.9949C27.6142 35.9927 27.8167 35.9896 28.0187 35.9859L27.9814 33.9862ZM26.5988 33.9999C26.5659 34 26.5329 34 26.5 34V36C26.5338 36 26.5675 36 26.6013 35.9999L26.5988 33.9999ZM26.5 34C26.2347 34 25.9714 33.999 25.7102 33.997L25.695 35.997C25.9614 35.999 26.2297 36 26.5 36V34ZM22.5809 33.9227C20.9301 33.8551 19.3743 33.7437 17.9132 33.5906L17.7047 35.5797C19.2119 35.7376 20.8101 35.8519 22.4991 35.921L22.5809 33.9227ZM11.8022 32.5857C11.2874 32.4634 10.7915 32.3338 10.3144 32.197L9.7634 34.1196C10.2715 34.2652 10.797 34.4026 11.3399 34.5315L11.8022 32.5857ZM7.44195 31.1958C5.87571 30.5343 4.61659 29.7758 3.64387 28.9413L2.34166 30.4593C3.50419 31.4566 4.95177 32.3152 6.66388 33.0382L7.44195 31.1958ZM1.03261 24.1959C1.01095 23.9687 1 23.7367 1 23.5H-1C-1 23.7984 -0.986196 24.0937 -0.958361 24.3857L1.03261 24.1959ZM1 23.5C1 23.2487 1.01996 22.9955 1.05986 22.7407L-0.916066 22.4313C-0.971565 22.7858 -1 23.1424 -1 23.5H1ZM2.33886 19.8324C3.19608 18.6377 4.45772 17.4493 6.09651 16.3295L4.9682 14.6782C3.18978 15.8933 1.74003 17.2363 0.713859 18.6665L2.33886 19.8324ZM12.428 13.1223C12.9753 12.9156 13.5387 12.7169 14.1176 12.5269L13.4939 10.6267C12.8879 10.8256 12.2968 11.034 11.7214 11.2513L12.428 13.1223ZM17.5789 11.543C19.2582 11.1346 21.0335 10.7969 22.8903 10.5426L22.619 8.5611C20.6963 8.82437 18.8538 9.17461 17.1062 9.59967L17.5789 11.543ZM30.0927 10.0066C30.3938 10.0022 30.6962 10 31 10V8C30.6866 8 30.3744 8.00228 30.0637 8.00679L30.0927 10.0066ZM31 10C31.4395 10 31.874 10.0037 32.3034 10.011L32.3376 8.01133C31.8967 8.0038 31.4508 8 31 8V10ZM37.4923 10.2943C40.3253 10.5638 42.8737 11.0106 45.1272 11.602L45.6349 9.66754C43.2641 9.04531 40.6081 8.58164 37.6817 8.30325L37.4923 10.2943ZM54.2048 15.8704C54.5269 16.1412 54.8247 16.4173 55.0983 16.698L56.5304 15.302C56.2083 14.9716 55.8619 14.6506 55.4918 14.3395L54.2048 15.8704ZM55.8144 15H55.7416V17H55.8144V15ZM55.4505 15H55.0138V17H55.4505V15ZM54.4316 15H54.3588V17H54.4316V15Z" fill="black" mask="url(#path-1-inside-1_16_74)"/>
<path d="M33.3633 33.946C34.0125 34.3597 33.9703 35.321 33.2874 35.6764L29.6928 37.5468C29.01 37.9021 28.1985 37.385 28.2322 36.6159L28.4096 32.5677C28.4434 31.7986 29.297 31.3544 29.9461 31.7682L33.3633 33.946Z" fill="black"/>
<path d="M17 0.5H49C51.4853 0.5 53.5 2.51472 53.5 5V25C53.5 27.4853 51.4853 29.5 49 29.5H17C14.5147 29.5 12.5 27.4853 12.5 25V5C12.5 2.51472 14.5147 0.5 17 0.5Z" fill="black" stroke="black"/>
<path d="M17 6H21.5H26" stroke="white" stroke-linecap="round"/>
<path d="M22 10H31.25H40.5" stroke="white" stroke-linecap="round"/>
<path d="M29 10H38.25H47.5" stroke="black" stroke-linecap="round"/>
<path d="M29 10H41H49.5" stroke="white" stroke-linecap="round"/>
<path d="M18 14H30H42" stroke="white" stroke-linecap="round"/>
<path d="M21 18H33H45" stroke="white" stroke-linecap="round"/>
<path d="M21 22L34.5 22L48 22" stroke="white" stroke-linecap="round"/>
<path d="M22 25L35 25L48 25" stroke="white" stroke-linecap="round"/>
<path d="M28 6L40 6L48 6" stroke="white" stroke-linecap="round"/>
<rect x="33.5" y="14.5" width="41" height="29" rx="4.5" fill="black" stroke="black"/>
<path d="M38.9716 17.2727V26H37.9148V18.3807H37.8636L35.733 19.7955V18.7216L37.9148 17.2727H38.9716ZM44.5497 17.2727V26H43.4929V18.3807H43.4418L41.3111 19.7955V18.7216L43.4929 17.2727H44.5497ZM49.9062 26.1193C49.2642 26.1193 48.7173 25.9446 48.2656 25.5952C47.8139 25.2429 47.4688 24.733 47.2301 24.0653C46.9915 23.3949 46.8722 22.5852 46.8722 21.6364C46.8722 20.6932 46.9915 19.8878 47.2301 19.2202C47.4716 18.5497 47.8182 18.0384 48.2699 17.6861C48.7244 17.331 49.2699 17.1534 49.9062 17.1534C50.5426 17.1534 51.0866 17.331 51.5384 17.6861C51.9929 18.0384 52.3395 18.5497 52.5781 19.2202C52.8196 19.8878 52.9403 20.6932 52.9403 21.6364C52.9403 22.5852 52.821 23.3949 52.5824 24.0653C52.3438 24.733 51.9986 25.2429 51.5469 25.5952C51.0952 25.9446 50.5483 26.1193 49.9062 26.1193ZM49.9062 25.1818C50.5426 25.1818 51.0369 24.875 51.3892 24.2614C51.7415 23.6477 51.9176 22.7727 51.9176 21.6364C51.9176 20.8807 51.8366 20.2372 51.6747 19.706C51.5156 19.1747 51.2855 18.7699 50.9844 18.4915C50.6861 18.2131 50.3267 18.0739 49.9062 18.0739C49.2756 18.0739 48.7827 18.3849 48.4276 19.0071C48.0724 19.6264 47.8949 20.5028 47.8949 21.6364C47.8949 22.392 47.9744 23.0341 48.1335 23.5625C48.2926 24.0909 48.5213 24.4929 48.8196 24.7685C49.1207 25.044 49.483 25.1818 49.9062 25.1818ZM57.6278 17.2727V26H56.571V18.3807H56.5199L54.3892 19.7955V18.7216L56.571 17.2727H57.6278ZM62.9844 26.1193C62.3423 26.1193 61.7955 25.9446 61.3438 25.5952C60.892 25.2429 60.5469 24.733 60.3082 24.0653C60.0696 23.3949 59.9503 22.5852 59.9503 21.6364C59.9503 20.6932 60.0696 19.8878 60.3082 19.2202C60.5497 18.5497 60.8963 18.0384 61.348 17.6861C61.8026 17.331 62.348 17.1534 62.9844 17.1534C63.6207 17.1534 64.1648 17.331 64.6165 17.6861C65.071 18.0384 65.4176 18.5497 65.6562 19.2202C65.8977 19.8878 66.0185 20.6932 66.0185 21.6364C66.0185 22.5852 65.8991 23.3949 65.6605 24.0653C65.4219 24.733 65.0767 25.2429 64.625 25.5952C64.1733 25.9446 63.6264 26.1193 62.9844 26.1193ZM62.9844 25.1818C63.6207 25.1818 64.1151 24.875 64.4673 24.2614C64.8196 23.6477 64.9957 22.7727 64.9957 21.6364C64.9957 20.8807 64.9148 20.2372 64.7528 19.706C64.5938 19.1747 64.3636 18.7699 64.0625 18.4915C63.7642 18.2131 63.4048 18.0739 62.9844 18.0739C62.3537 18.0739 61.8608 18.3849 61.5057 19.0071C61.1506 19.6264 60.973 20.5028 60.973 21.6364C60.973 22.392 61.0526 23.0341 61.2116 23.5625C61.3707 24.0909 61.5994 24.4929 61.8977 24.7685C62.1989 25.044 62.5611 25.1818 62.9844 25.1818ZM70.706 17.2727V26H69.6491V18.3807H69.598L67.4673 19.7955V18.7216L69.6491 17.2727H70.706ZM38.75 41.1193C38.108 41.1193 37.5611 40.9446 37.1094 40.5952C36.6577 40.2429 36.3125 39.733 36.0739 39.0653C35.8352 38.3949 35.7159 37.5852 35.7159 36.6364C35.7159 35.6932 35.8352 34.8878 36.0739 34.2202C36.3153 33.5497 36.6619 33.0384 37.1136 32.6861C37.5682 32.331 38.1136 32.1534 38.75 32.1534C39.3864 32.1534 39.9304 32.331 40.3821 32.6861C40.8366 33.0384 41.1832 33.5497 41.4219 34.2202C41.6634 34.8878 41.7841 35.6932 41.7841 36.6364C41.7841 37.5852 41.6648 38.3949 41.4261 39.0653C41.1875 39.733 40.8423 40.2429 40.3906 40.5952C39.9389 40.9446 39.392 41.1193 38.75 41.1193ZM38.75 40.1818C39.3864 40.1818 39.8807 39.875 40.233 39.2614C40.5852 38.6477 40.7614 37.7727 40.7614 36.6364C40.7614 35.8807 40.6804 35.2372 40.5185 34.706C40.3594 34.1747 40.1293 33.7699 39.8281 33.4915C39.5298 33.2131 39.1705 33.0739 38.75 33.0739C38.1193 33.0739 37.6264 33.3849 37.2713 34.0071C36.9162 34.6264 36.7386 35.5028 36.7386 36.6364C36.7386 37.392 36.8182 38.0341 36.9773 38.5625C37.1364 39.0909 37.3651 39.4929 37.6634 39.7685C37.9645 40.044 38.3267 40.1818 38.75 40.1818ZM46.25 41.1193C45.608 41.1193 45.0611 40.9446 44.6094 40.5952C44.1577 40.2429 43.8125 39.733 43.5739 39.0653C43.3352 38.3949 43.2159 37.5852 43.2159 36.6364C43.2159 35.6932 43.3352 34.8878 43.5739 34.2202C43.8153 33.5497 44.1619 33.0384 44.6136 32.6861C45.0682 32.331 45.6136 32.1534 46.25 32.1534C46.8864 32.1534 47.4304 32.331 47.8821 32.6861C48.3366 33.0384 48.6832 33.5497 48.9219 34.2202C49.1634 34.8878 49.2841 35.6932 49.2841 36.6364C49.2841 37.5852 49.1648 38.3949 48.9261 39.0653C48.6875 39.733 48.3423 40.2429 47.8906 40.5952C47.4389 40.9446 46.892 41.1193 46.25 41.1193ZM46.25 40.1818C46.8864 40.1818 47.3807 39.875 47.733 39.2614C48.0852 38.6477 48.2614 37.7727 48.2614 36.6364C48.2614 35.8807 48.1804 35.2372 48.0185 34.706C47.8594 34.1747 47.6293 33.7699 47.3281 33.4915C47.0298 33.2131 46.6705 33.0739 46.25 33.0739C45.6193 33.0739 45.1264 33.3849 44.7713 34.0071C44.4162 34.6264 44.2386 35.5028 44.2386 36.6364C44.2386 37.392 44.3182 38.0341 44.4773 38.5625C44.6364 39.0909 44.8651 39.4929 45.1634 39.7685C45.4645 40.044 45.8267 40.1818 46.25 40.1818ZM53.9716 32.2727V41H52.9148V33.3807H52.8636L50.733 34.7955V33.7216L52.9148 32.2727H53.9716ZM59.5497 32.2727V41H58.4929V33.3807H58.4418L56.3111 34.7955V33.7216L58.4929 32.2727H59.5497ZM65.1278 32.2727V41H64.071V33.3807H64.0199L61.8892 34.7955V33.7216L64.071 32.2727H65.1278ZM70.706 32.2727V41H69.6491V33.3807H69.598L67.4673 34.7955V33.7216L69.6491 32.2727H70.706Z" fill="white"/>
</svg>
