<svg width="128" height="143" viewBox="-6 -6.75 140 156.6" fill="none" xmlns="http://www.w3.org/2000/svg">
<circle cx="64" cy="69" r="31.5" stroke="black" stroke-width="7"/>
<path fill-rule="evenodd" clip-rule="evenodd" d="M58.6667 103.596V129.339L10.6667 101.661V46.8387L30.6468 58.3595C31.7367 54.94 33.338 51.7487 35.3607 48.8755L16.5333 37.9677L64 10.6452L111.289 37.9677L92.6081 48.8312C94.6263 51.6886 96.2271 54.8618 97.322 58.2621L117.333 46.6613V101.661L69.3333 129.339V103.596C67.5944 103.862 65.8133 104 64 104C62.1867 104 60.4056 103.862 58.6667 103.596ZM1.4 106.946C2.33333 108.577 3.64444 109.89 5.33333 110.887L58.6667 141.581C60.3259 142.527 62.094 143 63.9708 143C65.8477 143 67.6352 142.527 69.3333 141.581L122.667 110.887C124.356 109.89 125.667 108.577 126.6 106.946C127.533 105.315 128 103.554 128 101.661V41.3387C128 39.4462 127.533 37.6846 126.6 36.0539C125.667 34.4232 124.356 33.1095 122.667 32.1129L69.3333 1.41935C67.6741 0.473118 65.906 0 64.0292 0C62.1523 0 60.3648 0.473118 58.6667 1.41935L5.33333 32.1129C3.64444 33.1095 2.33333 34.4232 1.4 36.0539C0.466667 37.6846 0 39.4462 0 41.3387V101.661C0 103.554 0.466667 105.315 1.4 106.946Z" fill="black"/>
<path d="M85.5938 71.8384C86.3875 71.7767 87 71.1133 87 70.3182V66.6817C87 65.8852 86.3875 65.2233 85.5938 65.1601L80.7749 64.7838C80.4687 64.7604 80.205 64.5682 80.0869 64.2839L78.5021 60.4592C78.384 60.1763 78.4335 59.8523 78.634 59.6201L81.776 55.9452C82.2924 55.3395 82.2594 54.4386 81.695 53.8756L79.1242 51.3048C78.5612 50.7418 77.6589 50.706 77.0546 51.2238L73.3797 54.3659C73.1476 54.565 72.8221 54.6158 72.5406 54.4991L68.7146 52.9129C68.4317 52.7962 68.2381 52.5284 68.2134 52.2249L67.8384 47.4074C67.7767 46.6125 67.1147 46 66.3183 46H62.6818C61.8853 46 61.2234 46.6125 61.1616 47.4077L60.7853 52.2252C60.7619 52.5301 60.5683 52.7965 60.2854 52.9132L56.4594 54.4994C56.1765 54.6161 55.8524 54.5653 55.6189 54.3661L51.9454 51.224C51.3411 50.7063 50.4402 50.7421 49.8758 51.3051L47.305 53.8759C46.742 54.4389 46.7076 55.3398 47.224 55.9454L50.366 59.6204C50.5638 59.8525 50.616 60.1766 50.4979 60.4595L48.9131 64.2842C48.7977 64.5684 48.53 64.7607 48.2264 64.7841L43.4062 65.1602C42.6125 65.2233 42 65.8853 42 66.6818V70.3169C42 71.1134 42.6125 71.7766 43.4062 71.8385L48.2265 72.2135C48.53 72.2382 48.7978 72.4318 48.9132 72.7147L50.498 76.5394C50.6161 76.8223 50.5639 77.1477 50.3661 77.3799L47.224 81.0548C46.7077 81.6591 46.7421 82.56 47.3051 83.1244L49.8759 85.6952C50.4403 86.2582 51.3412 86.2926 51.9454 85.7748L55.619 82.6327C55.8524 82.435 56.1766 82.3828 56.4595 82.5009L60.2855 84.0856C60.5684 84.2038 60.762 84.4688 60.7854 84.7751L61.1617 89.5926C61.2234 90.3863 61.8853 91.0003 62.6819 91.0003H66.3184C67.1149 91.0003 67.7768 90.3864 67.8386 89.5926L68.2136 84.7751C68.2383 84.4688 68.4319 84.2038 68.7148 84.0856L72.5408 82.5009C72.8223 82.3828 73.1491 82.435 73.3799 82.6327L77.0548 85.7748C77.6591 86.2926 78.5614 86.2582 79.1244 85.6952L81.6952 83.1244C82.2596 82.56 82.2926 81.6591 81.7762 81.0548L78.6341 77.3799C78.4364 77.1477 78.3842 76.8223 78.5023 76.5394L80.0871 72.7147C80.2052 72.4318 80.4688 72.2382 80.7751 72.2135L85.5938 71.8384ZM64.5 76.1039C62.4689 76.1039 60.5586 75.3129 59.1221 73.8779C57.6857 72.44 56.8946 70.5312 56.8946 68.4987C56.8946 66.4676 57.6857 64.5573 59.1221 63.1222C60.5586 61.6844 62.4688 60.8947 64.5 60.8947C66.5325 60.8947 68.4414 61.6843 69.8779 63.1222C71.3143 64.5573 72.1054 66.4676 72.1054 68.4987C72.1054 70.5312 71.3143 72.44 69.8779 73.8779C68.4414 75.3129 66.5325 76.1039 64.5 76.1039Z" fill="black"/>
</svg>
