<svg width="82" height="81" viewBox="-4.5 -4.5 91 90" fill="none" xmlns="http://www.w3.org/2000/svg">
<path d="M16.5 36.45V21L3 13.2V28.65L16.5 36.45ZM19.5 36.45L33 28.65V13.15L19.5 20.9919V36.45ZM18 18.45L31.3 10.7L18 3L4.65 10.7L18 18.45ZM1.5 31.25C1.025 30.9691 0.65625 30.5989 0.39375 30.1393C0.13125 29.6798 0 29.1833 0 28.65V11.65C0 11.1167 0.13125 10.6202 0.39375 10.1607C0.65625 9.70108 1.025 9.33087 1.5 9.05L16.5 0.4C16.9776 0.133333 17.4803 0 18.0082 0C18.5361 0 19.0333 0.133333 19.5 0.4L34.5 9.05C34.975 9.33087 35.3438 9.70108 35.6063 10.1607C35.8688 10.6202 36 11.1167 36 11.65V28.65C36 29.1833 35.8688 29.6798 35.6063 30.1393C35.3438 30.5989 34.975 30.9691 34.5 31.25L19.5 39.9C19.0224 40.1667 18.5197 40.3 17.9918 40.3C17.4639 40.3 16.9667 40.1667 16.5 39.9L1.5 31.25Z" fill="black"/>
<path d="M26.5 76.45V61L13 53.2V68.65L26.5 76.45ZM29.5 76.45L43 68.65V53.15L29.5 60.9919V76.45ZM28 58.45L41.3 50.7L28 43L14.65 50.7L28 58.45ZM11.5 71.25C11.025 70.9691 10.6563 70.5989 10.3938 70.1393C10.1312 69.6798 10 69.1833 10 68.65V51.65C10 51.1167 10.1312 50.6202 10.3938 50.1607C10.6563 49.7011 11.025 49.3309 11.5 49.05L26.5 40.4C26.9776 40.1333 27.4803 40 28.0082 40C28.5361 40 29.0333 40.1333 29.5 40.4L44.5 49.05C44.975 49.3309 45.3438 49.7011 45.6063 50.1607C45.8688 50.6202 46 51.1167 46 51.65V68.65C46 69.1833 45.8688 69.6798 45.6063 70.1393C45.3438 70.5989 44.975 70.9691 44.5 71.25L29.5 79.9C29.0224 80.1667 28.5197 80.3 27.9918 80.3C27.4639 80.3 26.9667 80.1667 26.5 79.9L11.5 71.25Z" fill="black"/>
<path d="M62.5 46.45V31L49 23.2V38.65L62.5 46.45ZM65.5 46.45L79 38.65V23.15L65.5 30.9919V46.45ZM64 28.45L77.3 20.7L64 13L50.65 20.7L64 28.45ZM47.5 41.25C47.025 40.9691 46.6563 40.5989 46.3938 40.1393C46.1312 39.6798 46 39.1833 46 38.65V21.65C46 21.1167 46.1312 20.6202 46.3938 20.1607C46.6563 19.7011 47.025 19.3309 47.5 19.05L62.5 10.4C62.9776 10.1333 63.4803 10 64.0082 10C64.5361 10 65.0333 10.1333 65.5 10.4L80.5 19.05C80.975 19.3309 81.3438 19.7011 81.6063 20.1607C81.8688 20.6202 82 21.1167 82 21.65V38.65C82 39.1833 81.8688 39.6798 81.6063 40.1393C81.3438 40.5989 80.975 40.9691 80.5 41.25L65.5 49.9C65.0224 50.1667 64.5197 50.3 63.9918 50.3C63.4639 50.3 62.9667 50.1667 62.5 49.9L47.5 41.25Z" fill="black"/>
</svg>
