<svg width="42" height="89" viewBox="0 0 42 89" fill="none" xmlns="http://www.w3.org/2000/svg">
<path d="M0.5 3C0.5 1.61929 1.61929 0.5 3 0.5H39C40.3807 0.5 41.5 1.61929 41.5 3V86C41.5 87.3807 40.3807 88.5 39 88.5H3C1.61929 88.5 0.5 87.3807 0.5 86V3Z" fill="black" stroke="black"/>
<path d="M17 11H21.5H26" stroke="white" stroke-linecap="square"/>
<path d="M13 16H21.5H30" stroke="white" stroke-linecap="square"/>
<path d="M10 75L21.5 75H33" stroke="white" stroke-linecap="square"/>
<path d="M18 70H21.5H25" stroke="white" stroke-linecap="square"/>
<path d="M8 80L21.5 80L35 80" stroke="white" stroke-linecap="square"/>
<circle cx="21" cy="42" r="14.5" fill="white" stroke="black"/>
<circle cx="37.5" cy="4.5" r="1.5" fill="white"/>
<path d="M32.25 43.7805C32.6733 43.7475 33 43.3938 33 42.9697V41.0302C33 40.6054 32.6733 40.2524 32.25 40.2187L29.6799 40.018C29.5166 40.0056 29.376 39.903 29.313 39.7514L28.4678 37.7116C28.4048 37.5607 28.4312 37.3879 28.5381 37.2641L30.2139 35.3041C30.4893 34.9811 30.4717 34.5006 30.1707 34.2003L28.7996 32.8292C28.4993 32.529 28.0181 32.5099 27.6958 32.786L25.7358 34.4618C25.612 34.568 25.4385 34.5951 25.2883 34.5329L23.2478 33.6869C23.0969 33.6247 22.9936 33.4818 22.9805 33.32L22.7805 30.7506C22.7475 30.3267 22.3945 30 21.9697 30H20.0303C19.6055 30 19.2525 30.3267 19.2195 30.7508L19.0188 33.3201C19.0064 33.4827 18.9031 33.6248 18.7522 33.687L16.7117 34.533C16.5608 34.5953 16.388 34.5682 16.2634 34.4619L14.3042 32.7862C13.9819 32.51 13.5015 32.5291 13.2004 32.8294L11.8293 34.2005C11.529 34.5008 11.5107 34.9812 11.7861 35.3042L13.4619 37.2642C13.5674 37.388 13.5952 37.5608 13.5322 37.7117L12.687 39.7515C12.6255 39.9031 12.4827 40.0057 12.3208 40.0182L9.75 40.2188C9.32667 40.2525 9 40.6055 9 41.0303V42.969C9 43.3938 9.32667 43.7475 9.75 43.7805L12.3208 43.9805C12.4827 43.9937 12.6255 44.097 12.687 44.2478L13.5323 46.2877C13.5953 46.4385 13.5674 46.6121 13.4619 46.7359L11.7862 48.6959C11.5108 49.0182 11.5291 49.4986 11.8294 49.7997L13.2005 51.1708C13.5015 51.471 13.982 51.4894 14.3042 51.2132L16.2635 49.5375C16.388 49.432 16.5608 49.4041 16.7117 49.4671L18.7523 50.3123C18.9031 50.3753 19.0064 50.5167 19.0189 50.68L19.2195 53.2494C19.2525 53.6727 19.6055 54.0001 20.0303 54.0001H21.9698C22.3946 54.0001 22.7476 53.6728 22.7806 53.2494L22.9806 50.68C22.9937 50.5167 23.097 50.3753 23.2479 50.3123L25.2884 49.4671C25.4385 49.4041 25.6129 49.432 25.7359 49.5375L27.6959 51.2132C28.0182 51.4894 28.4994 51.471 28.7997 51.1708L30.1708 49.7997C30.4718 49.4986 30.4894 49.0182 30.214 48.6959L28.5382 46.7359C28.4327 46.6121 28.4049 46.4385 28.4679 46.2877L29.3131 44.2478C29.3761 44.097 29.5167 43.9937 29.68 43.9805L32.25 43.7805ZM21 46.0554C19.9168 46.0554 18.8979 45.6336 18.1318 44.8682C17.3657 44.1014 16.9438 43.0833 16.9438 41.9993C16.9438 40.9161 17.3657 39.8972 18.1318 39.1319C18.8979 38.365 19.9167 37.9439 21 37.9439C22.084 37.9439 23.1021 38.365 23.8682 39.1319C24.6343 39.8972 25.0562 40.9161 25.0562 41.9993C25.0562 43.0833 24.6343 44.1014 23.8682 44.8682C23.1021 45.6336 22.084 46.0554 21 46.0554Z" fill="black"/>
</svg>
