<svg width="99" height="116" viewBox="0 0 99 116" fill="none" xmlns="http://www.w3.org/2000/svg">
<path d="M16.5 79.45V64L3 56.2V71.65L16.5 79.45ZM19.5 79.45L33 71.65V56.15L19.5 63.9919V79.45ZM18 61.45L31.3 53.7L18 46L4.65 53.7L18 61.45ZM1.5 74.25C1.025 73.9691 0.65625 73.5989 0.39375 73.1393C0.13125 72.6798 0 72.1833 0 71.65V54.65C0 54.1167 0.13125 53.6202 0.39375 53.1607C0.65625 52.7011 1.025 52.3309 1.5 52.05L16.5 43.4C16.9776 43.1333 17.4803 43 18.0082 43C18.5361 43 19.0333 43.1333 19.5 43.4L34.5 52.05C34.975 52.3309 35.3438 52.7011 35.6063 53.1607C35.8688 53.6202 36 54.1167 36 54.65V71.65C36 72.1833 35.8688 72.6798 35.6063 73.1393C35.3438 73.5989 34.975 73.9691 34.5 74.25L19.5 82.9C19.0224 83.1667 18.5197 83.3 17.9918 83.3C17.4639 83.3 16.9667 83.1667 16.5 82.9L1.5 74.25Z" fill="black"/>
<path d="M97.5 30C97.5 31.1211 96.4318 32.6263 93.5466 33.9378C90.7968 35.1877 86.8926 36 82.5 36C78.1074 36 74.2032 35.1877 71.4534 33.9378C68.5682 32.6263 67.5 31.1211 67.5 30C67.5 28.8789 68.5682 27.3737 71.4534 26.0622C74.2032 24.8123 78.1074 24 82.5 24C86.8926 24 90.7968 24.8123 93.5466 26.0622C96.4318 27.3737 97.5 28.8789 97.5 30Z" stroke="black" stroke-width="3"/>
<path d="M97.5 73C97.5 74.1211 96.4318 75.6263 93.5466 76.9378C90.7968 78.1877 86.8926 79 82.5 79C78.1074 79 74.2032 78.1877 71.4535 76.9378C68.5683 75.6263 67.5 74.1211 67.5 73C67.5 71.8789 68.5683 70.3737 71.4535 69.0622C74.2032 67.8123 78.1074 67 82.5 67C86.8926 67 90.7968 67.8123 93.5466 69.0622C96.4318 70.3737 97.5 71.8789 97.5 73Z" stroke="black" stroke-width="3"/>
<mask id="path-4-inside-1_110_378" fill="white">
<path fill-rule="evenodd" clip-rule="evenodd" d="M99 30H98.8546C97.779 33.6694 90.8668 36.5 82.5 36.5C74.1332 36.5 67.221 33.6694 66.1454 30H66V73H66.3301C67.8589 69.5766 74.5174 67 82.5 67C90.4826 67 97.1411 69.5766 98.6699 73H99V30Z"/>
</mask>
<path d="M98.8546 30V27H96.6077L95.9757 29.1561L98.8546 30ZM99 30H102V27H99V30ZM66.1454 30L69.0243 29.1561L68.3923 27H66.1454V30ZM66 30V27H63V30H66ZM66 73H63V76H66V73ZM66.3301 73V76H68.2759L69.0693 74.2233L66.3301 73ZM98.6699 73L95.9307 74.2233L96.7241 76H98.6699V73ZM99 73V76H102V73H99ZM98.8546 33H99V27H98.8546V33ZM82.5 39.5C86.9927 39.5 91.2026 38.7441 94.5281 37.4105C97.6588 36.155 100.792 34.0551 101.733 30.8439L95.9757 29.1561C95.8414 29.6143 94.9809 30.7644 92.2949 31.8416C89.8037 32.8406 86.3741 33.5 82.5 33.5V39.5ZM63.2665 30.8439C64.2078 34.0551 67.3412 36.155 70.4719 37.4105C73.7974 38.7441 78.0073 39.5 82.5 39.5V33.5C78.6259 33.5 75.1963 32.8406 72.7051 31.8416C70.0191 30.7644 69.1586 29.6143 69.0243 29.1561L63.2665 30.8439ZM66 33H66.1454V27H66V33ZM69 73V30H63V73H69ZM66 76H66.3301V70H66V76ZM82.5 64C78.21 64 74.1839 64.6891 70.9398 65.9079C67.8478 67.0695 64.8527 68.951 63.5908 71.7767L69.0693 74.2233C69.3362 73.6257 70.4348 72.5071 73.05 71.5246C75.5129 70.5992 78.8074 70 82.5 70V64ZM101.409 71.7767C100.147 68.951 97.1522 67.0695 94.0602 65.9079C90.8161 64.6891 86.79 64 82.5 64V70C86.1926 70 89.4871 70.5992 91.95 71.5246C94.5652 72.5071 95.6638 73.6257 95.9307 74.2233L101.409 71.7767ZM98.6699 76H99V70H98.6699V76ZM96 30V73H102V30H96Z" fill="black" mask="url(#path-4-inside-1_110_378)"/>
<path d="M52.3837 113.5L30 100.5L52.3837 74M52.3837 113.5V74M52.3837 113.5L70.5 100.5L52.3837 74" stroke="black" stroke-width="3"/>
</svg>
