<svg width="162" height="245" viewBox="-8 -12 178 269" fill="none" xmlns="http://www.w3.org/2000/svg">
<path d="M129.75 89.7155C131.584 89.5727 133 88.0397 133 86.202V77.7977C133 75.9568 131.584 74.4271 129.75 74.281L118.613 73.4115C117.905 73.3574 117.296 72.9132 117.023 72.2561L113.36 63.4169C113.087 62.763 113.202 62.0141 113.665 61.4777L120.927 52.9844C122.12 51.5847 122.044 49.5026 120.74 48.2014L114.798 42.26C113.497 40.9588 111.412 40.8761 110.015 42.0727L101.522 49.3345C100.985 49.7947 100.233 49.9121 99.5827 49.6424L90.7405 45.9766C90.0866 45.7068 89.6391 45.0879 89.582 44.3865L88.7155 33.2526C88.5727 31.4156 87.043 30 85.2022 30H76.798C74.957 30 73.4273 31.4156 73.2845 33.2532L72.4149 44.3871C72.3609 45.0918 71.9134 45.7075 71.2595 45.9772L62.4173 49.643C61.7635 49.9127 61.0145 49.7953 60.4748 49.3351L51.9848 42.0733C50.5883 40.8767 48.5063 40.9594 47.2018 42.2606L41.2604 48.202C39.9592 49.5032 39.8798 51.5853 41.0731 52.985L48.3349 61.4783C48.7919 62.0147 48.9125 62.7637 48.6395 63.4175L44.977 72.2567C44.7103 72.9136 44.0916 73.358 43.39 73.4121L32.25 74.2812C30.4156 74.4273 29 75.957 29 77.798V86.199C29 88.0399 30.4156 89.5727 32.25 89.7157L43.3902 90.5822C44.0916 90.6393 44.7105 91.0868 44.9772 91.7407L48.6398 100.58C48.9128 101.234 48.7921 101.986 48.3351 102.522L41.0733 111.016C39.88 112.412 39.9594 114.494 41.2606 115.799L47.202 121.74C48.5065 123.041 50.5885 123.121 51.985 121.924L60.475 114.662C61.0145 114.205 61.7637 114.085 62.4175 114.358L71.2598 118.02C71.9136 118.293 72.3611 118.906 72.4151 119.613L73.2847 130.747C73.4275 132.582 74.9572 134.001 76.7982 134.001H85.2025C87.0434 134.001 88.5731 132.582 88.7159 130.747L89.5824 119.613C89.6395 118.906 90.087 118.293 90.7409 118.02L99.5831 114.358C100.234 114.085 100.989 114.205 101.522 114.662L110.016 121.924C111.412 123.121 113.497 123.041 114.799 121.74L120.74 115.799C122.044 114.494 122.121 112.412 120.927 111.016L113.666 102.522C113.209 101.986 113.088 101.234 113.361 100.58L117.023 91.7407C117.296 91.0868 117.906 90.6393 118.613 90.5822L129.75 89.7155ZM81 99.5736C76.306 99.5736 71.8911 97.7454 68.5712 94.4288C65.2513 91.1059 63.4232 86.6942 63.4232 81.9969C63.4232 77.3029 65.2513 72.888 68.5712 69.5714C71.8911 66.2485 76.3058 64.4234 81 64.4234C85.6973 64.4234 90.1089 66.2483 93.4288 69.5714C96.7487 72.888 98.5768 77.3029 98.5768 81.9969C98.5768 86.6942 96.7487 91.1059 93.4288 94.4288C90.1089 97.7454 85.6973 99.5736 81 99.5736Z" fill="black"/>
<path d="M161.966 80.7213C161.099 103.143 152.586 124.601 137.834 141.553C133.465 146.404 130.133 152.09 128.04 158.265V175.595C128.04 179.806 126.362 183.844 123.374 186.822C120.386 189.799 116.334 191.472 112.109 191.472H49.8913C45.6659 191.472 41.6136 189.799 38.6259 186.822C35.6381 183.844 33.9596 179.806 33.9596 175.595V158.265C31.8658 152.09 28.5337 146.404 24.1658 141.553C9.40132 124.606 0.877014 103.148 2.88552e-08 80.7213C-0.000498742 62.0922 6.46507 44.0364 18.3001 29.6162C30.1352 15.1959 46.6111 5.29898 64.9336 1.60391C83.2561 -2.09117 102.297 0.643096 118.827 9.34297C135.357 18.0428 148.359 32.1727 155.627 49.3362C159.853 59.2746 162.02 69.9611 162 80.7548L161.966 80.7213ZM146.035 80.7213C146.035 63.5329 139.183 47.0484 126.986 34.8943C114.79 22.7402 98.2482 15.9121 80.9999 15.9121C63.7516 15.9121 47.2098 22.7402 35.0134 34.8943C22.8171 47.0484 15.9652 63.5329 15.9652 80.7213C15.9652 120.212 49.8913 137.693 49.8913 158.265V175.595H112.109V158.265C112.109 137.693 146.035 120.212 146.035 80.7213ZM120.074 210.106C120.077 211.15 119.872 212.184 119.473 213.149C119.074 214.114 118.487 214.991 117.747 215.73C117.007 216.469 116.128 217.055 115.161 217.455C114.193 217.855 113.156 218.061 112.109 218.061H49.8913C47.7786 218.061 45.7525 217.224 44.2586 215.736C42.7647 214.247 41.9254 212.228 41.9254 210.123C41.9254 208.017 42.7647 205.998 44.2586 204.509C45.7525 203.021 47.7786 202.184 49.8913 202.184H112.109C114.218 202.184 116.242 203.018 117.735 204.503C119.229 205.989 120.07 208.003 120.074 210.106ZM109.342 231.196C109.613 231.978 109.633 232.825 109.398 233.619C109.164 234.413 108.687 235.114 108.033 235.625C100.181 241.702 90.5224 245 80.5807 245C70.6389 245 60.9801 241.702 53.1279 235.625C52.4684 235.121 51.9843 234.423 51.7436 233.63C51.5029 232.837 51.5179 231.988 51.7863 231.204C52.0548 230.42 52.5632 229.74 53.2401 229.259C53.917 228.777 54.7282 228.52 55.5596 228.522H105.585C106.415 228.522 107.224 228.779 107.9 229.258C108.577 229.738 109.07 230.415 109.342 231.196Z" fill="black"/>
</svg>
