<svg width="24" height="8" viewBox="-2.25 -0.75 28.5 9.5" fill="none" xmlns="http://www.w3.org/2000/svg">
<path d="M2.5909 7.1234C2.17328 7.1234 1.80113 7.05096 1.47442 6.90607C1.14772 6.75835 0.889193 6.54102 0.698853 6.25408C0.511353 5.96431 0.417603 5.60352 0.417603 5.1717C0.417603 4.80806 0.484364 4.50266 0.617887 4.2555C0.751409 4.00835 0.933228 3.80948 1.16334 3.65891C1.39345 3.50834 1.65482 3.39471 1.94743 3.318C2.24289 3.2413 2.55255 3.18732 2.87641 3.15607C3.25709 3.1163 3.56391 3.07937 3.79686 3.04528C4.02982 3.00834 4.19885 2.95437 4.30397 2.88335C4.40908 2.81232 4.46164 2.70721 4.46164 2.568V2.54244C4.46164 2.27255 4.37641 2.06374 4.20595 1.91602C4.03834 1.76829 3.7997 1.69442 3.49005 1.69442C3.16334 1.69442 2.9034 1.76687 2.71022 1.91175C2.51703 2.0538 2.38919 2.23278 2.32669 2.44869L0.647716 2.31232C0.732943 1.91459 0.900557 1.57084 1.15056 1.28107C1.40056 0.988458 1.723 0.764026 2.11789 0.607776C2.51561 0.448686 2.97584 0.369141 3.49857 0.369141C3.8622 0.369141 4.21022 0.411754 4.5426 0.496981C4.87783 0.582209 5.1747 0.714311 5.43323 0.893288C5.69459 1.07227 5.90056 1.30238 6.05113 1.58363C6.20169 1.86204 6.27698 2.19584 6.27698 2.58505V6.99982H4.55539V6.09215H4.50425C4.39914 6.2967 4.25851 6.4771 4.08238 6.63335C3.90624 6.78675 3.69459 6.90749 3.44743 6.99556C3.20027 7.08079 2.91476 7.1234 2.5909 7.1234ZM3.11078 5.87056C3.37783 5.87056 3.61363 5.818 3.81817 5.71289C4.02272 5.60494 4.18323 5.46005 4.2997 5.27823C4.41618 5.09641 4.47442 4.89045 4.47442 4.66033V3.96573C4.4176 4.00266 4.33948 4.03675 4.24005 4.068C4.14346 4.09641 4.03408 4.1234 3.91192 4.14897C3.78976 4.1717 3.6676 4.193 3.54544 4.21289C3.42328 4.22994 3.31249 4.24556 3.21306 4.25977C2.99999 4.29102 2.81391 4.34073 2.65482 4.40891C2.49573 4.47709 2.37215 4.56942 2.28408 4.6859C2.19601 4.79954 2.15198 4.94158 2.15198 5.11204C2.15198 5.3592 2.24147 5.54812 2.42044 5.6788C2.60226 5.80664 2.83238 5.87056 3.11078 5.87056Z" fill="black"/>
<path d="M13.1314 2.32085L11.4694 2.42312C11.441 2.28107 11.38 2.15323 11.2862 2.0396C11.1925 1.92312 11.0689 1.83079 10.9155 1.76261C10.7649 1.69158 10.5845 1.65607 10.3743 1.65607C10.093 1.65607 9.85581 1.71573 9.66263 1.83505C9.46945 1.95153 9.37286 2.10778 9.37286 2.3038C9.37286 2.46005 9.43536 2.59215 9.56036 2.70011C9.68536 2.80806 9.89985 2.89471 10.2038 2.96005L11.3885 3.19869C12.0248 3.32937 12.4993 3.53959 12.8118 3.82937C13.1243 4.11914 13.2805 4.49982 13.2805 4.97141C13.2805 5.40039 13.1541 5.77681 12.9013 6.10067C12.6513 6.42454 12.3075 6.67738 11.87 6.8592C11.4354 7.03817 10.9339 7.12766 10.3658 7.12766C9.49928 7.12766 8.80894 6.94727 8.29473 6.58647C7.78337 6.22283 7.48365 5.72852 7.39559 5.10352L9.1811 5.00977C9.23507 5.27397 9.36576 5.47567 9.57314 5.61488C9.78053 5.75124 10.0462 5.81942 10.37 5.81942C10.6882 5.81942 10.9439 5.75835 11.1371 5.63619C11.3331 5.51119 11.4325 5.35067 11.4354 5.15465C11.4325 4.98988 11.3629 4.85494 11.2266 4.74982C11.0902 4.64187 10.88 4.55948 10.5959 4.50266L9.46235 4.27681C8.82314 4.14897 8.34729 3.92738 8.03479 3.61204C7.72513 3.2967 7.5703 2.89471 7.5703 2.40607C7.5703 1.98562 7.68394 1.6234 7.91121 1.31942C8.14132 1.01545 8.46377 0.781072 8.87854 0.616299C9.29615 0.451527 9.78479 0.369141 10.3444 0.369141C11.1712 0.369141 11.8217 0.543856 12.2962 0.893288C12.7734 1.24272 13.0518 1.71857 13.1314 2.32085Z" fill="black"/>
<path d="M14.4236 6.99982V0.454368H16.1538V1.6092H16.2305C16.3668 1.22567 16.5941 0.923118 16.9123 0.701526C17.2305 0.479936 17.6111 0.369141 18.0543 0.369141C18.5032 0.369141 18.8853 0.481356 19.2006 0.705788C19.516 0.927379 19.7262 1.22852 19.8313 1.6092H19.8995C20.033 1.2342 20.2745 0.934481 20.6239 0.710049C20.9762 0.482777 21.3924 0.369141 21.8725 0.369141C22.4833 0.369141 22.979 0.563743 23.3597 0.952947C23.7432 1.33931 23.935 1.88761 23.935 2.59783V6.99982H22.1239V2.95579C22.1239 2.59215 22.0273 2.31942 21.8342 2.13761C21.641 1.95579 21.3995 1.86488 21.1097 1.86488C20.7802 1.86488 20.5231 1.96999 20.3384 2.18022C20.1538 2.38761 20.0614 2.66175 20.0614 3.00266V6.99982H18.3015V2.91744C18.3015 2.59641 18.2092 2.34073 18.0245 2.15039C17.8427 1.96005 17.6026 1.86488 17.3043 1.86488C17.1026 1.86488 16.9208 1.91602 16.7589 2.01829C16.5998 2.11772 16.4734 2.25834 16.3796 2.44016C16.2859 2.61914 16.239 2.82937 16.239 3.07085V6.99982H14.4236Z" fill="black"/>
</svg>
