<svg width="85" height="85" viewBox="-13 -4 95 95" fill="none" xmlns="http://www.w3.org/2000/svg">
<path d="M19.9678 65.0123C19.9678 65.0123 16.7553 66.8805 22.254 67.5127C28.9156 68.2726 32.3202 68.1636 39.6613 66.7742C39.6613 66.7742 41.5913 67.9844 44.2867 69.0326C27.83 76.0857 7.04193 68.6241 19.9678 65.0123Z" fill="black"/>
<path d="M17.9569 55.8085C17.9569 55.8085 14.3537 58.4756 19.8565 59.0448C26.9726 59.7789 32.5923 59.8389 42.3166 57.9664C42.3166 57.9664 43.6616 59.33 45.7765 60.0757C25.8793 65.8939 3.71748 60.5345 17.9569 55.8085Z" fill="black"/>
<path d="M34.9097 40.1957C38.9646 44.8643 33.8443 49.0653 33.8443 49.0653C33.8443 49.0653 44.1404 43.7501 39.4119 37.0943C34.9955 30.8873 31.6088 27.8032 49.9432 17.1699C49.9432 17.1699 21.1642 24.3576 34.9097 40.1957Z" fill="black"/>
<path d="M56.6749 71.82C56.6749 71.82 59.0522 73.7788 54.0567 75.2942C44.5577 78.1718 14.5207 79.0408 6.1766 75.4089C3.17709 74.104 8.80201 72.2931 10.5714 71.9131C12.4167 71.513 13.4712 71.5875 13.4712 71.5875C10.1355 69.2377 -8.08974 76.2017 4.21371 78.1961C37.767 83.6375 65.3782 75.7458 56.6749 71.82Z" fill="black"/>
<path d="M21.5127 46.2724C21.5127 46.2724 6.23397 49.9013 16.1021 51.2191C20.2687 51.777 28.5748 51.6507 36.3117 51.0025C42.6348 50.4691 48.9838 49.3351 48.9838 49.3351C48.9838 49.3351 46.7543 50.2899 45.1412 51.3913C29.6259 55.4718 -0.346676 53.5735 8.28206 49.3996C15.5794 45.8722 21.5127 46.2724 21.5127 46.2724Z" fill="black"/>
<path d="M48.9207 61.5926C64.6927 53.3968 57.4004 45.5208 52.3104 46.5819C51.0629 46.8415 50.5066 47.0665 50.5066 47.0665C50.5066 47.0665 50.9697 46.341 51.8543 46.027C61.9239 42.4868 69.668 56.4681 48.6038 62.0056C48.6038 62.0058 48.8478 61.7876 48.9207 61.5926Z" fill="black"/>
<path d="M39.412 0C39.412 0 48.1467 8.73772 31.1274 22.1739C17.4796 32.952 28.0153 39.0973 31.1217 46.1187C23.1553 38.931 17.309 32.6037 21.2312 26.7148C26.988 18.0704 42.9362 13.8793 39.412 0Z" fill="black"/>
<path d="M23.0622 83.801C38.2013 84.7701 61.4492 83.2633 61.9998 76.0999C61.9998 76.0999 60.9414 78.8154 49.4881 80.9721C36.5665 83.4038 20.6296 83.1198 11.1772 81.5614C11.1775 81.5612 13.1123 83.1629 23.0622 83.801Z" fill="black"/>
</svg>
