<svg width="70" height="70" viewBox="-13 -9 90 90" fill="none" xmlns="http://www.w3.org/2000/svg">
<path d="M31.5 70.9891C30.5217 70.9891 29.6087 70.7283 28.7609 70.2717L20.087 65.1196C18.7826 64.4022 19.4348 64.1413 19.8261 64.0109C21.587 63.4239 21.913 63.2935 23.7391 62.25C23.9348 62.1196 24.1957 62.1848 24.3913 62.3152L31.0435 66.2935C31.3043 66.4239 31.6304 66.4239 31.8261 66.2935L57.8478 51.2283C58.1087 51.0978 58.2391 50.837 58.2391 50.5109V20.4457C58.2391 20.1196 58.1087 19.8587 57.8478 19.7283L31.8261 4.72826C31.5652 4.59783 31.2391 4.59783 31.0435 4.72826L5.02174 19.7283C4.76087 19.8587 4.63043 20.1848 4.63043 20.4457V50.5109C4.63043 50.7717 4.76087 51.0978 5.02174 51.2283L12.1304 55.337C15.9783 57.2935 18.3913 55.0109 18.3913 52.7283V23.0543C18.3913 22.663 18.7174 22.2717 19.1739 22.2717H22.5C22.8913 22.2717 23.2826 22.5978 23.2826 23.0543V52.7283C23.2826 57.8804 20.4783 60.8804 15.587 60.8804C14.087 60.8804 12.913 60.8804 9.58696 59.25L2.73913 55.337C1.04348 54.3587 0 52.5326 0 50.5761V20.5109C0 18.5543 1.04348 16.7283 2.73913 15.75L28.7609 0.684782C30.3913 -0.228261 32.6087 -0.228261 34.2391 0.684782L60.2609 15.75C61.9565 16.7283 63 18.5543 63 20.5109V50.5761C63 52.5326 61.9565 54.3587 60.2609 55.337L34.2391 70.4022C33.3913 70.7935 32.413 70.9891 31.5 70.9891ZM39.5217 50.3152C28.1087 50.3152 25.7609 45.0978 25.7609 40.663C25.7609 40.2717 26.087 39.8804 26.5435 39.8804H29.9348C30.3261 39.8804 30.6522 40.1413 30.6522 40.5326C31.1739 43.9891 32.6739 45.6848 39.587 45.6848C45.0652 45.6848 47.413 44.4457 47.413 41.5109C47.413 39.8152 46.7609 38.5761 38.2174 37.7283C31.1087 37.0109 26.6739 35.4457 26.6739 29.7717C26.6739 24.4891 31.1087 21.3587 38.5435 21.3587C46.8913 21.3587 51 24.2283 51.5217 30.4891C51.5217 30.6848 51.4565 30.8804 51.3261 31.0761C51.1957 31.2065 51 31.337 50.8043 31.337H47.413C47.087 31.337 46.7609 31.0761 46.6957 30.75C45.913 27.163 43.8913 25.9891 38.5435 25.9891C32.5435 25.9891 31.8261 28.0761 31.8261 29.6413C31.8261 31.5326 32.6739 32.1196 40.7609 33.163C48.7826 34.2065 52.5652 35.7065 52.5652 41.3152C52.5 47.0543 47.8043 50.3152 39.5217 50.3152Z" fill="black"/>
</svg>
