<svg width="74" height="77" viewBox="-6 -10 90 90" fill="none" xmlns="http://www.w3.org/2000/svg">
<path d="M69.9962 46.8786C61.0788 48.7181 60.4658 45.6988 60.4658 45.6988C69.8812 31.7279 73.8171 13.9939 70.4205 9.65356C61.1541 -2.18597 45.1136 3.41336 44.846 3.55873L44.7598 3.57416C42.998 3.20843 41.0263 2.99056 38.8103 2.95439C34.7753 2.88827 31.7146 4.01221 29.3921 5.77347C29.3921 5.77347 0.777427 -6.01465 2.10826 20.5992C2.39137 26.2612 10.2233 63.4398 19.565 52.2101C22.9794 48.1038 26.2784 44.6318 26.2784 44.6318C27.917 45.7203 29.8785 46.2755 31.935 46.0761L32.0947 45.9405C32.0451 46.4503 32.0677 46.949 32.1587 47.5393C29.7521 50.2281 30.4593 50.7002 25.6485 51.6905C20.7806 52.6937 23.6403 54.4798 25.5074 54.9466C27.7709 55.5126 33.0075 56.3144 36.5458 51.3613L36.4047 51.9264C37.3476 52.6816 38.0098 56.839 37.8988 60.6076C37.7878 64.3763 37.7137 66.9637 38.4567 68.9847C39.1996 71.0057 39.9401 75.5528 46.2644 74.1977C51.5489 73.0653 54.2873 70.1306 54.6682 65.2354C54.9386 61.7553 55.5504 62.2697 55.589 59.1583L56.0797 57.6853C56.6456 52.9678 56.1696 51.4458 59.4253 52.1537L60.2165 52.2232C62.6128 52.3322 65.749 51.8378 67.5897 50.9823C71.5533 49.1428 73.904 46.0717 69.9959 46.8786H69.9962Z" stroke="black" stroke-width="3" stroke-linecap="round" stroke-linejoin="round"/>
<path d="M36.9287 49.583C36.6832 58.3611 36.9904 67.2004 37.8493 69.3486C38.7088 71.4969 40.548 75.6753 46.8728 74.3204C52.1568 73.1876 54.0793 70.9954 54.9136 66.1566C55.5281 62.5965 56.7126 52.7093 56.8646 50.6835" stroke="black" stroke-width="3" stroke-linecap="round" stroke-linejoin="round"/>
<path d="M29.348 5.5775C29.348 5.5775 0.713834 -6.1257 2.04502 20.4882C2.32813 26.1501 10.1606 63.33 19.5021 52.0997C22.9158 47.9929 26.0031 44.7719 26.0031 44.7719" stroke="black" stroke-width="3" stroke-linecap="round" stroke-linejoin="round"/>
<path d="M44.8146 3.44139C43.8235 3.75216 60.7427 -2.74367 70.3581 9.54277C73.7546 13.8833 69.8187 31.6173 60.4034 45.5886" stroke="black" stroke-width="3" stroke-linecap="round" stroke-linejoin="round"/>
<path d="M60.4032 45.5887C60.4032 45.5887 61.0168 48.6088 69.9344 46.7681C73.8416 45.9611 71.4902 49.0327 67.5275 50.873C64.2753 52.3823 56.9841 52.7691 56.8649 50.6835C56.5584 45.3022 60.7025 46.937 60.4034 45.5887C60.1331 44.3743 58.2798 43.1825 57.0539 40.2104C55.9837 37.6163 42.376 17.7228 60.8276 20.6774C61.5036 20.5375 56.0152 3.12646 38.7471 2.84335C21.4829 2.56023 22.0493 24.0745 22.0493 24.0745" stroke="black" stroke-width="3" stroke-linecap="round" stroke-linejoin="bevel"/>
<path d="M32.0959 47.4289C29.689 50.1176 30.3968 50.5896 25.5857 51.5803C20.7178 52.5837 23.5778 54.3694 25.4444 54.836C27.7079 55.4024 32.9445 56.2042 36.4828 51.2498C37.5603 49.7414 36.4764 47.3345 34.9963 46.7209C34.2812 46.4247 33.3249 46.0534 32.0959 47.4289Z" stroke="black" stroke-width="3" stroke-linecap="round" stroke-linejoin="round"/>
<path d="M31.9382 47.3821C31.6957 45.8013 32.4576 43.9202 33.2742 41.7195C34.5013 38.4175 37.3326 35.115 35.0677 24.6407C33.3795 16.8353 22.0562 23.0163 22.0491 24.0747C22.0422 25.1326 22.5612 29.4391 21.8599 34.4539C20.9448 40.9978 26.0238 46.5323 31.8724 45.966" stroke="black" stroke-width="3" stroke-linecap="round" stroke-linejoin="round"/>
<path d="M29.244 23.9159C29.193 24.2773 29.9058 25.2419 30.8353 25.3708C31.7632 25.5002 32.5574 24.7464 32.6077 24.3853C32.6581 24.0238 31.9461 23.6256 31.0163 23.4962C30.0879 23.3666 29.2933 23.5553 29.2442 23.9159H29.244Z" fill="black" stroke="black" stroke-width="3"/>
<path d="M57.5062 23.179C57.5566 23.5404 56.8446 24.505 55.915 24.6339C54.9864 24.7633 54.1922 24.0095 54.1413 23.6484C54.0922 23.2869 54.8043 22.8888 55.7331 22.7593C56.6619 22.6299 57.4559 22.8184 57.5062 23.1791V23.179Z" fill="black" stroke="black" stroke-width="3"/>
<path d="M60.8275 20.6772C60.9805 23.5126 60.2168 25.4439 60.1205 28.4622C59.978 32.8495 62.2122 37.8711 58.8457 42.8989" stroke="black" stroke-width="3" stroke-linecap="round" stroke-linejoin="round"/>
</svg>
