<?xml version="1.0" encoding="UTF-8" standalone="no"?>
<!-- Created with Inkscape (http://www.inkscape.org/) -->

<svg
   xmlns:dc="http://purl.org/dc/elements/1.1/"
   xmlns:cc="http://creativecommons.org/ns#"
   xmlns:rdf="http://www.w3.org/1999/02/22-rdf-syntax-ns#"
   xmlns:svg="http://www.w3.org/2000/svg"
   xmlns="http://www.w3.org/2000/svg"
   version="1.1"
   width="800"
   height="260"
   id="svg2">
  <defs
     id="defs4" />
  <metadata
     id="metadata7">
    <rdf:RDF>
      <cc:Work
         rdf:about="">
        <dc:format>image/svg+xml</dc:format>
        <dc:type
           rdf:resource="http://purl.org/dc/dcmitype/StillImage" />
        <dc:title></dc:title>
      </cc:Work>
    </rdf:RDF>
  </metadata>
  <g
     transform="translate(0,-792)"
     id="layer1">
    <path
       d="m 207.9,843.1 -14.6,38.5 -96.86,0 c -20.53,0 -20.76,27 0,27 l 56.66,0 c 72.2,-0.1 72.2,102.4 0,102.4 l -110.8,0 15.22,-37.6 97.08,0 c 20.9,0 21.4,-27.3 0,-27.3 l -55.99,0 c -73.16,0 -73.39,-103 0,-103 z"
       id="path3782"
       style="fill:black;stroke:none" />
    <path
       d="m 212,843.1 -14.6,38.5 46.1,0 0,129.4 37.9,0 0,-129.4 36.4,0 14.6,-38.5 z"
       id="path3792"
       style="fill:black;stroke:none" />
    <path
       d="m 335.4,843.1 -14.6,38.5 108.5,0 c 7.3,0 13.5,4.4 13.5,12.6 l 0,14.4 -85.9,0 c -66.3,0 -66.6,102.4 0,102.4 l 123.7,0 0,-117.4 c 0,-24.3 -20.4,-50.5 -53.3,-50.5 z m 23.5,103 83.9,0 0,27.3 -83.9,0 c -19.6,0 -19,-27.3 0,-27.3 z"
       id="path3794"
       style="fill:black;stroke:none" />
    <path
       d="m 619.7,843.1 -14.6,38.5 108.5,0 c 7.4,0 13.6,4.4 13.6,12.6 l 0,14.4 -85.9,0 c -66.3,0 -66.6,102.4 0,102.4 l 123.6,0 0,-117.4 c 0,-24.3 -20.4,-50.5 -53.2,-50.5 z m 23.5,103 84,0 0,27.3 -84,0 c -19.5,0 -19,-27.3 0,-27.3 z"
       id="path3794-5"
       style="fill:black;stroke:none" />
    <path
       d="m 495.6,843.1 -14.6,38.5 46.1,0 0,129.4 37.8,0 0,-129.4 36.4,0 14.7,-38.5 z"
       id="path3792-3"
       style="fill:black;stroke:none" />
  </g>
</svg>
