<svg width="216" height="224" viewBox="-22 -21.5 260 270" fill="none" xmlns="http://www.w3.org/2000/svg">
<path fill-rule="evenodd" clip-rule="evenodd" d="M104.461 39.8803L105.306 42.7593C90.9329 46.9773 90.8106 67.5141 105.338 72.0117C124.663 77.6682 124.387 104.917 105.339 110.749L104.462 107.886L105.306 110.759C90.9335 114.977 90.8106 135.513 105.336 140.011C105.34 140.012 105.343 140.013 105.347 140.014L114.604 142.706C132.153 147.809 133.146 172.298 116.068 178.805L113.932 173.198C125.632 168.74 124.951 151.963 112.929 148.467L103.623 145.762L104.462 142.876L103.575 145.747C83.5818 139.568 83.3131 110.962 103.614 105.003C117.166 100.823 117.031 81.6603 103.623 77.7616L104.462 74.8764L103.575 77.7469C83.5874 71.57 83.3133 42.9779 103.597 37.0075C117.166 32.8386 117.037 13.6617 103.623 9.76138L105.298 4C124.664 9.63092 124.4 36.9128 105.339 42.7492L104.461 39.8803Z" fill="black"/>
<path d="M105.306 42.7593L106.15 45.6379L109.029 44.7931L108.184 41.9145L105.306 42.7593ZM104.461 39.8803L107.329 39.002L101.582 40.7251L104.461 39.8803ZM105.338 72.0117L104.451 74.8775L104.473 74.8844L104.495 74.891L105.338 72.0117ZM105.339 110.749L102.471 111.628L103.349 114.496L106.217 113.618L105.339 110.749ZM104.462 107.886L107.331 107.008L101.584 108.731L104.462 107.886ZM105.306 110.759L106.15 113.638L109.029 112.793L108.184 109.915L105.306 110.759ZM105.336 140.011L106.226 137.146L106.224 137.146L105.336 140.011ZM105.347 140.014L104.457 142.879L104.483 142.888L104.509 142.895L105.347 140.014ZM114.604 142.706L115.442 139.825L115.442 139.825L114.604 142.706ZM116.068 178.805L113.265 179.873L114.333 182.677L117.136 181.609L116.068 178.805ZM113.932 173.198L112.864 170.395L110.06 171.463L111.128 174.267L113.932 173.198ZM112.929 148.467L112.091 151.348L112.091 151.348L112.929 148.467ZM103.623 145.762L100.742 144.924L99.9048 147.805L102.785 148.642L103.623 145.762ZM104.462 142.876L107.343 143.714L101.596 141.99L104.462 142.876ZM103.575 145.747L102.689 148.613L105.555 149.499L106.441 146.633L103.575 145.747ZM103.614 105.003L104.459 107.881L104.479 107.875L104.499 107.869L103.614 105.003ZM103.623 77.7616L100.742 76.924L99.9048 79.8047L102.785 80.6423L103.623 77.7616ZM104.462 74.8764L107.343 75.7141L101.596 73.9907L104.462 74.8764ZM103.575 77.7469L102.689 80.6132L105.555 81.499L106.441 78.6327L103.575 77.7469ZM103.597 37.0075L104.445 39.8855L104.462 39.8804L104.479 39.8752L103.597 37.0075ZM103.623 9.76138L100.742 8.92375L99.9048 11.8044L102.785 12.6421L103.623 9.76138ZM105.298 4L106.136 1.11931L103.255 0.281678L102.418 3.16237L105.298 4ZM105.339 42.7492L102.471 43.6276L103.349 46.4961L106.217 45.6178L105.339 42.7492ZM108.184 41.9145L107.339 39.0355L101.582 40.7251L102.427 43.6041L108.184 41.9145ZM106.225 69.146C94.4628 65.5043 94.7034 48.9973 106.15 45.6379L104.461 39.8807C87.1624 44.9573 87.1585 69.5239 104.451 74.8775L106.225 69.146ZM106.217 113.618C127.975 106.956 128.502 75.666 106.181 69.1325L104.495 74.891C120.824 79.6704 120.8 102.878 104.461 107.881L106.217 113.618ZM101.594 108.764L102.471 111.628L108.208 109.871L107.331 107.008L101.594 108.764ZM108.184 109.915L107.341 107.041L101.584 108.731L102.427 111.604L108.184 109.915ZM106.224 137.146C94.4628 133.503 94.7039 116.997 106.15 113.638L104.461 107.881C87.163 112.957 87.1585 137.522 104.449 142.877L106.224 137.146ZM106.236 137.149C106.232 137.148 106.227 137.147 106.226 137.146C106.224 137.146 106.225 137.146 106.226 137.146L104.446 142.876C104.451 142.878 104.455 142.879 104.457 142.879C104.459 142.88 104.458 142.88 104.457 142.879L106.236 137.149ZM104.509 142.895L113.766 145.587L115.442 139.825L106.184 137.134L104.509 142.895ZM113.766 145.587C128.552 149.886 129.389 170.519 115 176.002L117.136 181.609C136.904 174.077 135.754 145.732 115.442 139.825L113.766 145.587ZM118.871 177.737L116.735 172.13L111.128 174.267L113.265 179.873L118.871 177.737ZM115 176.002C129.389 170.519 128.552 149.886 113.766 145.587L112.091 151.348C121.35 154.041 121.875 166.962 112.864 170.395L115 176.002ZM113.766 145.587L104.461 142.881L102.785 148.642L112.091 151.348L113.766 145.587ZM106.504 146.599L107.343 143.714L101.581 142.039L100.742 144.924L106.504 146.599ZM106.441 146.633L107.328 143.762L101.596 141.99L100.709 144.861L106.441 146.633ZM102.769 102.124C79.4777 108.961 79.9941 141.6 102.689 148.613L104.461 142.881C87.1694 137.537 87.1485 112.963 104.459 107.881L102.769 102.124ZM102.785 80.6423C113.263 83.6888 113.509 98.8115 102.73 102.136L104.499 107.869C120.824 102.834 120.799 79.6318 104.461 74.8809L102.785 80.6423ZM101.581 74.0388L100.742 76.924L106.504 78.5993L107.343 75.7141L101.581 74.0388ZM106.441 78.6327L107.328 75.7622L101.596 73.9907L100.709 76.8612L106.441 78.6327ZM102.75 34.1296C79.4782 40.9794 80.0001 73.6014 102.689 80.6132L104.461 74.8807C87.1746 69.5386 87.1483 44.9763 104.445 39.8855L102.75 34.1296ZM102.785 12.6421C113.267 15.6899 113.509 30.824 102.716 34.1398L104.479 39.8752C120.824 34.8532 120.806 11.6335 104.461 6.88069L102.785 12.6421ZM102.418 3.16237L100.742 8.92375L106.504 10.599L108.179 4.83763L102.418 3.16237ZM106.217 45.6178C127.989 38.9515 128.503 7.62315 106.136 1.11931L104.461 6.88069C120.824 11.6387 120.812 34.874 104.461 39.8807L106.217 45.6178ZM101.592 40.7587L102.471 43.6276L108.208 41.8709L107.329 39.002L101.592 40.7587Z" fill="black"/>
<path d="M115 176.002L112.537 176.872C104.48 179.718 99.2023 187.463 99.4999 196.002V196.002" stroke="black" stroke-width="12"/>
<path d="M101.281 220.115C100.531 221.54 98.4906 221.54 97.7408 220.115L85.5425 196.933C84.8417 195.601 85.8075 194.002 87.3124 194.002L111.709 194.002C113.214 194.002 114.18 195.601 113.479 196.933L101.281 220.115Z" fill="black"/>
<path fill-rule="evenodd" clip-rule="evenodd" d="M20.4606 39.8803L21.3055 42.7593C6.93294 46.9773 6.81063 67.5141 21.3378 72.0117C40.6632 77.6682 40.3874 104.917 21.3391 110.749L20.4622 107.886L21.3055 110.759C6.93347 114.977 6.81064 135.513 21.3362 140.011C21.3396 140.012 21.3431 140.013 21.3465 140.014L30.604 142.706C48.1532 147.809 49.1463 172.298 32.068 178.805L29.9317 173.198C41.6318 168.74 40.9514 151.963 28.9287 148.467L19.6231 145.762L20.4621 142.876L19.5749 145.747C-0.418221 139.568 -0.686901 110.962 19.6145 105.003C33.1662 100.823 33.031 81.6603 19.6231 77.7616L20.462 74.8764L19.5749 77.7469C-0.412632 71.57 -0.68675 42.9779 19.5974 37.0075C33.1663 32.8386 33.0366 13.6617 19.6231 9.76138L21.2984 4C40.6636 9.63092 40.4004 36.9128 21.3391 42.7492L20.4606 39.8803Z" fill="black"/>
<path d="M21.3055 42.7593L22.1503 45.6379L25.0289 44.7931L24.1841 41.9145L21.3055 42.7593ZM20.4606 39.8803L23.3292 39.002L17.582 40.7251L20.4606 39.8803ZM21.3378 72.0117L20.4505 74.8775L20.4727 74.8844L20.4951 74.891L21.3378 72.0117ZM21.3391 110.749L18.4705 111.628L19.3489 114.496L22.2174 113.618L21.3391 110.749ZM20.4622 107.886L23.3308 107.008L17.5836 108.731L20.4622 107.886ZM21.3055 110.759L22.1503 113.638L25.0289 112.793L24.1841 109.915L21.3055 110.759ZM21.3362 140.011L22.2265 137.146L22.2237 137.146L21.3362 140.011ZM21.3465 140.014L20.4567 142.879L20.4827 142.888L20.5089 142.895L21.3465 140.014ZM30.604 142.706L31.4416 139.825L31.4416 139.825L30.604 142.706ZM32.068 178.805L29.2646 179.873L30.3328 182.677L33.1362 181.609L32.068 178.805ZM29.9317 173.198L28.8635 170.395L26.0602 171.463L27.1283 174.267L29.9317 173.198ZM28.9287 148.467L28.0911 151.348L28.0911 151.348L28.9287 148.467ZM19.6231 145.762L16.7424 144.924L15.9048 147.805L18.7855 148.642L19.6231 145.762ZM20.4621 142.876L23.3428 143.714L17.5958 141.99L20.4621 142.876ZM19.5749 145.747L18.6892 148.613L21.5554 149.499L22.4412 146.633L19.5749 145.747ZM19.6145 105.003L20.4594 107.881L20.4791 107.875L20.4986 107.869L19.6145 105.003ZM19.6231 77.7616L16.7424 76.924L15.9048 79.8047L18.7855 80.6423L19.6231 77.7616ZM20.462 74.8764L23.3427 75.7141L17.5958 73.9907L20.462 74.8764ZM19.5749 77.7469L18.6892 80.6132L21.5554 81.499L22.4412 78.6327L19.5749 77.7469ZM19.5974 37.0075L20.4445 39.8855L20.4615 39.8804L20.4785 39.8752L19.5974 37.0075ZM19.6231 9.76138L16.7424 8.92375L15.9048 11.8044L18.7855 12.6421L19.6231 9.76138ZM21.2984 4L22.136 1.11931L19.2553 0.281678L18.4177 3.16237L21.2984 4ZM21.3391 42.7492L18.4705 43.6276L19.3488 46.4961L22.2174 45.6178L21.3391 42.7492ZM24.1841 41.9145L23.3392 39.0355L17.582 40.7251L18.4269 43.6041L24.1841 41.9145ZM22.2251 69.146C10.4628 65.5043 10.7034 48.9973 22.1503 45.6379L20.4607 39.8807C3.16244 44.9573 3.1585 69.5239 20.4505 74.8775L22.2251 69.146ZM22.2174 113.618C43.9748 106.956 44.5021 75.666 22.1805 69.1325L20.4951 74.891C36.8243 79.6704 36.8001 102.878 20.4607 107.881L22.2174 113.618ZM17.5937 108.764L18.4705 111.628L24.2076 109.871L23.3308 107.008L17.5937 108.764ZM24.1841 109.915L23.3408 107.041L17.5836 108.731L18.4269 111.604L24.1841 109.915ZM22.2237 137.146C10.4628 133.503 10.7039 116.997 22.1503 113.638L20.4607 107.881C3.16305 112.957 3.15852 137.522 20.4487 142.877L22.2237 137.146ZM22.2364 137.149C22.2315 137.148 22.2271 137.147 22.226 137.146C22.2239 137.146 22.2249 137.146 22.2265 137.146L20.4459 142.876C20.4509 142.878 20.4554 142.879 20.4567 142.879C20.459 142.88 20.458 142.88 20.4567 142.879L22.2364 137.149ZM20.5089 142.895L29.7664 145.587L31.4416 139.825L22.1841 137.134L20.5089 142.895ZM29.7664 145.587C44.5523 149.886 45.3891 170.519 30.9999 176.002L33.1362 181.609C52.9036 174.077 51.7541 145.732 31.4416 139.825L29.7664 145.587ZM34.8714 177.737L32.7351 172.13L27.1283 174.267L29.2646 179.873L34.8714 177.737ZM30.9999 176.002C45.3891 170.519 44.5523 149.886 29.7663 145.587L28.0911 151.348C37.3505 154.041 37.8745 166.962 28.8635 170.395L30.9999 176.002ZM29.7663 145.587L20.4607 142.881L18.7855 148.642L28.0911 151.348L29.7663 145.587ZM22.5038 146.599L23.3428 143.714L17.5814 142.039L16.7424 144.924L22.5038 146.599ZM22.4412 146.633L23.3283 143.762L17.5958 141.99L16.7087 144.861L22.4412 146.633ZM18.7695 102.124C-4.52227 108.961 -4.00589 141.6 18.6892 148.613L20.4607 142.881C3.16944 137.537 3.14847 112.963 20.4594 107.881L18.7695 102.124ZM18.7855 80.6423C29.2626 83.6888 29.5086 98.8115 18.7303 102.136L20.4986 107.869C36.8239 102.834 36.7993 79.6318 20.4607 74.8809L18.7855 80.6423ZM17.5813 74.0388L16.7424 76.924L22.5038 78.5993L23.3427 75.7141L17.5813 74.0388ZM22.4412 78.6327L23.3283 75.7622L17.5958 73.9907L16.7087 76.8612L22.4412 78.6327ZM18.7504 34.1296C-4.52181 40.9794 -3.9999 73.6014 18.6892 80.6132L20.4607 74.8807C3.17463 69.5386 3.14831 44.9763 20.4445 39.8855L18.7504 34.1296ZM18.7855 12.6421C29.2672 15.6899 29.5086 30.824 18.7164 34.1398L20.4785 39.8752C36.8241 34.8532 36.8059 11.6335 20.4607 6.88069L18.7855 12.6421ZM18.4177 3.16237L16.7424 8.92375L22.5038 10.599L24.179 4.83763L18.4177 3.16237ZM22.2174 45.6178C43.9887 38.9515 44.5033 7.62315 22.136 1.11931L20.4607 6.88069C36.8239 11.6387 36.8121 34.874 20.4607 39.8807L22.2174 45.6178ZM17.5921 40.7587L18.4705 43.6276L24.2076 41.8709L23.3292 39.002L17.5921 40.7587Z" fill="black"/>
<path d="M30.9999 176.002L28.5366 176.872C20.4802 179.718 15.2023 187.463 15.4999 196.002V196.002" stroke="black" stroke-width="12"/>
<path d="M17.2806 220.115C16.5308 221.54 14.4906 221.54 13.7408 220.115L1.54252 196.933C0.841707 195.601 1.80749 194.002 3.31243 194.002L27.709 194.002C29.2139 194.002 30.1797 195.601 29.4789 196.933L17.2806 220.115Z" fill="black"/>
<path fill-rule="evenodd" clip-rule="evenodd" d="M188.461 39.8803L189.306 42.7593C174.933 46.9773 174.811 67.5141 189.338 72.0117C208.663 77.6682 208.387 104.917 189.339 110.749L188.462 107.886L189.306 110.759C174.933 114.977 174.811 135.513 189.336 140.011C189.34 140.012 189.343 140.013 189.347 140.014L198.604 142.706C216.153 147.809 217.146 172.298 200.068 178.805L197.932 173.198C209.632 168.74 208.951 151.963 196.929 148.467L187.623 145.762L188.462 142.876L187.575 145.747C167.582 139.568 167.313 110.962 187.614 105.003C201.166 100.823 201.031 81.6603 187.623 77.7616L188.462 74.8764L187.575 77.7469C167.587 71.57 167.313 42.9779 187.597 37.0075C201.166 32.8386 201.037 13.6617 187.623 9.76138L189.298 4C208.664 9.63092 208.4 36.9128 189.339 42.7492L188.461 39.8803Z" fill="black"/>
<path d="M189.306 42.7593L190.15 45.6379L193.029 44.7931L192.184 41.9145L189.306 42.7593ZM188.461 39.8803L191.329 39.002L185.582 40.7251L188.461 39.8803ZM189.338 72.0117L188.451 74.8775L188.473 74.8844L188.495 74.891L189.338 72.0117ZM189.339 110.749L186.471 111.628L187.349 114.496L190.217 113.618L189.339 110.749ZM188.462 107.886L191.331 107.008L185.584 108.731L188.462 107.886ZM189.306 110.759L190.15 113.638L193.029 112.793L192.184 109.915L189.306 110.759ZM189.336 140.011L190.226 137.146L190.224 137.146L189.336 140.011ZM189.347 140.014L188.457 142.879L188.483 142.888L188.509 142.895L189.347 140.014ZM198.604 142.706L199.442 139.825L199.442 139.825L198.604 142.706ZM200.068 178.805L197.265 179.873L198.333 182.677L201.136 181.609L200.068 178.805ZM197.932 173.198L196.864 170.395L194.06 171.463L195.128 174.267L197.932 173.198ZM196.929 148.467L196.091 151.348L196.091 151.348L196.929 148.467ZM187.623 145.762L184.742 144.924L183.905 147.805L186.785 148.642L187.623 145.762ZM188.462 142.876L191.343 143.714L185.596 141.99L188.462 142.876ZM187.575 145.747L186.689 148.613L189.555 149.499L190.441 146.633L187.575 145.747ZM187.614 105.003L188.459 107.881L188.479 107.875L188.499 107.869L187.614 105.003ZM187.623 77.7616L184.742 76.924L183.905 79.8047L186.785 80.6423L187.623 77.7616ZM188.462 74.8764L191.343 75.7141L185.596 73.9907L188.462 74.8764ZM187.575 77.7469L186.689 80.6132L189.555 81.499L190.441 78.6327L187.575 77.7469ZM187.597 37.0075L188.445 39.8855L188.462 39.8804L188.479 39.8752L187.597 37.0075ZM187.623 9.76138L184.742 8.92375L183.905 11.8044L186.785 12.6421L187.623 9.76138ZM189.298 4L190.136 1.11931L187.255 0.281678L186.418 3.16237L189.298 4ZM189.339 42.7492L186.471 43.6276L187.349 46.4961L190.217 45.6178L189.339 42.7492ZM192.184 41.9145L191.339 39.0355L185.582 40.7251L186.427 43.6041L192.184 41.9145ZM190.225 69.146C178.463 65.5043 178.703 48.9973 190.15 45.6379L188.461 39.8807C171.162 44.9573 171.159 69.5239 188.451 74.8775L190.225 69.146ZM190.217 113.618C211.975 106.956 212.502 75.666 190.181 69.1325L188.495 74.891C204.824 79.6704 204.8 102.878 188.461 107.881L190.217 113.618ZM185.594 108.764L186.471 111.628L192.208 109.871L191.331 107.008L185.594 108.764ZM192.184 109.915L191.341 107.041L185.584 108.731L186.427 111.604L192.184 109.915ZM190.224 137.146C178.463 133.503 178.704 116.997 190.15 113.638L188.461 107.881C171.163 112.957 171.159 137.522 188.449 142.877L190.224 137.146ZM190.236 137.149C190.232 137.148 190.227 137.147 190.226 137.146C190.224 137.146 190.225 137.146 190.226 137.146L188.446 142.876C188.451 142.878 188.455 142.879 188.457 142.879C188.459 142.88 188.458 142.88 188.457 142.879L190.236 137.149ZM188.509 142.895L197.766 145.587L199.442 139.825L190.184 137.134L188.509 142.895ZM197.766 145.587C212.552 149.886 213.389 170.519 199 176.002L201.136 181.609C220.904 174.077 219.754 145.732 199.442 139.825L197.766 145.587ZM202.871 177.737L200.735 172.13L195.128 174.267L197.265 179.873L202.871 177.737ZM199 176.002C213.389 170.519 212.552 149.886 197.766 145.587L196.091 151.348C205.35 154.041 205.875 166.962 196.864 170.395L199 176.002ZM197.766 145.587L188.461 142.881L186.785 148.642L196.091 151.348L197.766 145.587ZM190.504 146.599L191.343 143.714L185.581 142.039L184.742 144.924L190.504 146.599ZM190.441 146.633L191.328 143.762L185.596 141.99L184.709 144.861L190.441 146.633ZM186.769 102.124C163.478 108.961 163.994 141.6 186.689 148.613L188.461 142.881C171.169 137.537 171.148 112.963 188.459 107.881L186.769 102.124ZM186.785 80.6423C197.263 83.6888 197.509 98.8115 186.73 102.136L188.499 107.869C204.824 102.834 204.799 79.6318 188.461 74.8809L186.785 80.6423ZM185.581 74.0388L184.742 76.924L190.504 78.5993L191.343 75.7141L185.581 74.0388ZM190.441 78.6327L191.328 75.7622L185.596 73.9907L184.709 76.8612L190.441 78.6327ZM186.75 34.1296C163.478 40.9794 164 73.6014 186.689 80.6132L188.461 74.8807C171.175 69.5386 171.148 44.9763 188.445 39.8855L186.75 34.1296ZM186.785 12.6421C197.267 15.6899 197.509 30.824 186.716 34.1398L188.479 39.8752C204.824 34.8532 204.806 11.6335 188.461 6.88069L186.785 12.6421ZM186.418 3.16237L184.742 8.92375L190.504 10.599L192.179 4.83763L186.418 3.16237ZM190.217 45.6178C211.989 38.9515 212.503 7.62315 190.136 1.11931L188.461 6.88069C204.824 11.6387 204.812 34.874 188.461 39.8807L190.217 45.6178ZM185.592 40.7587L186.471 43.6276L192.208 41.8709L191.329 39.002L185.592 40.7587Z" fill="black"/>
<path d="M199 176.002L196.537 176.872C188.48 179.718 183.202 187.463 183.5 196.002V196.002" stroke="black" stroke-width="12"/>
<path d="M185.281 220.115C184.531 221.54 182.491 221.54 181.741 220.115L169.543 196.933C168.842 195.601 169.807 194.002 171.312 194.002L195.709 194.002C197.214 194.002 198.18 195.601 197.479 196.933L185.281 220.115Z" fill="black"/>
</svg>
